<svg width="65" height="20" viewBox="0 0 65 20" fill="none" xmlns="http://www.w3.org/2000/svg">
<g clip-path="url(#clip0_74_277)">
<path d="M4.10967 12.2919C4.63909 12.2919 5.1685 12.2919 5.71397 12.2919C5.71397 12.3297 5.71397 12.3675 5.71397 12.4065C5.77069 12.4348 5.77069 12.4348 5.82856 12.4638C5.87735 12.5636 5.87735 12.5636 5.92167 12.6858C5.94404 12.7458 5.94404 12.7458 5.96688 12.8071C6.00045 12.9221 6.00045 12.9221 6.00045 13.094C6.03826 13.094 6.07608 13.094 6.11504 13.094C6.13373 13.1473 6.15241 13.2005 6.17167 13.2554C6.1967 13.3262 6.22174 13.397 6.24754 13.47C6.27213 13.5398 6.29673 13.6096 6.32207 13.6815C6.3993 13.8902 6.4856 14.0929 6.57341 14.2972C6.63125 14.447 6.68645 14.5977 6.74172 14.7485C6.83217 14.9927 6.9226 15.2352 7.03178 15.4718C7.22567 15.894 7.37593 16.3362 7.5364 16.772C7.58171 16.8949 7.62724 17.0177 7.67278 17.1406C7.6864 17.1778 7.70002 17.2151 7.71405 17.2535C7.77722 17.4238 7.84527 17.5855 7.92748 17.7476C8.01939 17.9345 8.0425 18.1018 8.06312 18.308C8.10093 18.308 8.13875 18.308 8.17771 18.308C8.20016 18.3694 8.22261 18.4309 8.24575 18.4942C8.35748 18.7539 8.51868 18.878 8.76858 19.0063C9.18757 19.133 9.59393 19.1387 10.0112 18.9955C10.1457 18.9008 10.2283 18.8264 10.2616 18.6611C10.2703 18.5255 10.2713 18.3916 10.27 18.2557C10.2704 18.2042 10.2708 18.1526 10.2712 18.0995C10.2723 17.9291 10.2716 17.7588 10.2708 17.5884C10.271 17.47 10.2712 17.3515 10.2715 17.2331C10.2718 16.9848 10.2713 16.7365 10.2703 16.4882C10.269 16.17 10.2697 15.8519 10.2711 15.5337C10.2719 15.2891 10.2716 15.0445 10.271 14.7998C10.2709 14.6825 10.2711 14.5652 10.2716 14.4479C10.2722 14.2839 10.2713 14.1199 10.27 13.9558C10.2705 13.9074 10.271 13.859 10.2714 13.8091C10.2682 13.5823 10.2564 13.4643 10.1363 13.2663C9.96618 13.11 9.82154 13.0872 9.59579 13.0475C9.52341 13.0341 9.45103 13.0207 9.37645 13.007C9.32121 12.9979 9.26596 12.9888 9.20904 12.9794C9.20904 12.7903 9.20904 12.6013 9.20904 12.4065C10.7217 12.4065 12.2343 12.4065 13.7927 12.4065C13.8712 12.5634 13.8573 12.6913 13.85 12.8648C13.8311 12.9026 13.8122 12.9405 13.7927 12.9794C13.6079 13.01 13.4232 13.0271 13.2368 13.045C12.9943 13.1079 12.9148 13.1829 12.7614 13.3805C12.7206 13.5514 12.7234 13.7173 12.7262 13.8924C12.7257 13.9689 12.7257 13.9689 12.7252 14.0469C12.7245 14.2151 12.7259 14.3833 12.7274 14.5515C12.7275 14.6686 12.7275 14.7857 12.7274 14.9028C12.7275 15.148 12.7286 15.3932 12.7304 15.6385C12.7326 15.9528 12.7329 16.267 12.7325 16.5812C12.7323 16.823 12.733 17.0647 12.734 17.3064C12.7344 17.4223 12.7345 17.5381 12.7345 17.654C12.7346 17.816 12.7358 17.9779 12.7374 18.1399C12.7372 18.1877 12.737 18.2355 12.7368 18.2848C12.7407 18.5471 12.7578 18.7286 12.9333 18.9382C13.0842 18.9949 13.2145 19.0344 13.3702 19.0672C13.789 19.1637 13.789 19.1637 13.85 19.2247C13.8572 19.4253 13.8572 19.4253 13.85 19.6258C13.7927 19.6831 13.7927 19.6831 13.6443 19.6901C13.5776 19.6901 13.5109 19.69 13.4422 19.69C13.4052 19.69 13.3681 19.6901 13.33 19.6901C13.2051 19.6902 13.0802 19.6899 12.9552 19.6896C12.866 19.6896 12.7768 19.6896 12.6876 19.6896C12.4447 19.6896 12.2018 19.6893 11.9589 19.6889C11.7053 19.6885 11.4518 19.6885 11.1982 19.6884C10.7177 19.6883 10.2372 19.6878 9.75665 19.6872C9.20975 19.6866 8.66284 19.6863 8.11594 19.686C6.9906 19.6854 5.86527 19.6844 4.73993 19.6831C4.73993 19.5129 4.73993 19.3428 4.73993 19.1674C5.06136 19.0918 5.38279 19.0162 5.71397 18.9382C5.65127 18.5862 5.57598 18.2909 5.42748 17.9642C5.37076 17.794 5.31404 17.6239 5.2556 17.4485C4.09277 17.4202 4.09277 17.4202 2.90645 17.3912C2.90645 17.4669 2.90645 17.5425 2.90645 17.6204C2.86863 17.6204 2.83081 17.6204 2.79185 17.6204C2.78122 17.7197 2.78122 17.7197 2.77037 17.821C2.74013 18.0664 2.68391 18.2984 2.61996 18.5372C2.58215 18.5372 2.54433 18.5372 2.50537 18.5372C2.52428 18.6506 2.54319 18.7641 2.56267 18.8809C2.90301 18.9755 3.24335 19.07 3.594 19.1674C3.594 19.3376 3.594 19.5078 3.594 19.6831C2.57298 19.6831 1.55196 19.6831 0.5 19.6831C0.5 19.5129 0.5 19.3428 0.5 19.1674C0.567359 19.1426 0.634718 19.1178 0.704118 19.0922C0.788924 19.0601 0.873674 19.0279 0.958371 18.9955C0.996555 18.9811 1.03474 18.9667 1.07408 18.9519C1.27302 18.8727 1.35199 18.8348 1.47404 18.6518C1.51185 18.6518 1.54967 18.6518 1.58863 18.6518C1.62645 18.5005 1.66426 18.3492 1.70322 18.1934C1.74104 18.1934 1.77885 18.1934 1.81782 18.1934C1.82823 18.1471 1.83864 18.1008 1.84937 18.0531C1.86378 17.9918 1.87818 17.9306 1.89302 17.8675C1.90698 17.807 1.92094 17.7465 1.93532 17.6842C1.98958 17.5062 2.06334 17.3761 2.16159 17.2194C2.20294 17.0866 2.24184 16.953 2.27619 16.8183C2.314 16.8183 2.35182 16.8183 2.39078 16.8183C2.40053 16.7746 2.41028 16.731 2.42032 16.686C2.50947 16.3062 2.62206 15.9656 2.79185 15.6151C2.95242 15.2605 3.07326 14.8963 3.19293 14.5264C3.23074 14.5264 3.26856 14.5264 3.30752 14.5264C3.39261 14.1861 3.39261 14.1861 3.47941 13.8389C3.51722 13.8389 3.55504 13.8389 3.594 13.8389C3.67909 13.4985 3.67909 13.4985 3.76589 13.1513C3.80371 13.1513 3.84152 13.1513 3.88048 13.1513C3.90797 13.0511 3.93542 12.9508 3.96285 12.8505C3.97814 12.7947 3.99342 12.7388 4.00918 12.6813C4.04407 12.5519 4.07715 12.4219 4.10967 12.2919ZM4.05237 14.4691C3.91217 14.7191 3.85168 14.929 3.82319 15.214C3.78537 15.214 3.74756 15.214 3.70859 15.214C3.67951 15.295 3.65097 15.3762 3.62265 15.4575C3.6067 15.5027 3.59074 15.5479 3.57431 15.5945C3.52647 15.7431 3.52647 15.7431 3.53671 15.9588C3.49889 15.9588 3.46107 15.9588 3.42211 15.9588C3.39314 16.0411 3.36457 16.1235 3.33617 16.2059C3.32021 16.2518 3.30426 16.2977 3.28782 16.3449C3.24224 16.4795 3.24224 16.4795 3.25022 16.6464C3.74183 16.6464 4.23343 16.6464 4.73993 16.6464C4.73993 16.6086 4.73993 16.5708 4.73993 16.5318C4.77774 16.5318 4.81556 16.5318 4.85452 16.5318C4.82561 16.2427 4.75849 16.043 4.62534 15.7869C4.57924 15.655 4.53705 15.5224 4.4962 15.3888C4.45323 15.2563 4.45323 15.2563 4.33885 15.0994C4.29148 14.9511 4.25183 14.8017 4.21173 14.6513C4.17954 14.5162 4.17954 14.5162 4.05237 14.4691ZM4.85452 16.5318C4.91182 16.6464 4.91182 16.6464 4.91182 16.6464L4.85452 16.5318Z" fill="black"/>
<path d="M40.2063 12.4065C40.7981 12.4024 41.3899 12.3994 41.9817 12.3975C42.2566 12.3967 42.5315 12.3955 42.8065 12.3935C45.8094 12.3726 45.8094 12.3726 46.9672 12.9221C46.9672 12.9599 46.9672 12.9977 46.9672 13.0367C47.017 13.0497 47.0668 13.0627 47.1181 13.0761C47.3359 13.161 47.4815 13.2788 47.6476 13.4378C47.6921 13.4798 47.6921 13.4798 47.7375 13.5226C48.1584 13.9273 48.4946 14.2739 48.5715 14.8702C48.6094 14.8702 48.6472 14.8702 48.6861 14.8702C48.8435 15.678 48.8603 16.4694 48.6861 17.2766C48.6483 17.2766 48.6105 17.2766 48.5715 17.2766C48.5609 17.3529 48.5609 17.3529 48.5501 17.4306C48.4971 17.7115 48.43 17.8808 48.2278 18.0788C48.1279 18.1958 48.0291 18.3135 47.9308 18.4317C47.8267 18.5372 47.8267 18.5372 47.7029 18.5978C47.5769 18.6468 47.5769 18.6468 47.5402 18.8236C47.2826 19.0354 47.0025 19.151 46.6808 19.2247C46.6808 19.2625 46.6808 19.3003 46.6808 19.3393C46.571 19.3683 46.4612 19.3969 46.3513 19.4253C46.2902 19.4412 46.229 19.4572 46.166 19.4736C45.9932 19.5112 45.9932 19.5112 45.764 19.5112C45.764 19.549 45.764 19.5868 45.764 19.6258C45.418 19.669 45.0816 19.6914 44.7331 19.6905C44.6602 19.6906 44.6602 19.6906 44.5859 19.6908C44.4271 19.6911 44.2683 19.6909 44.1096 19.6907C43.9987 19.6907 43.8878 19.6908 43.7769 19.6909C43.5456 19.6909 43.3142 19.6908 43.0829 19.6906C42.7857 19.6902 42.4885 19.6904 42.1914 19.6908C41.9629 19.691 41.7345 19.6909 41.506 19.6908C41.3963 19.6907 41.2867 19.6908 41.177 19.6909C41.0245 19.691 40.872 19.6908 40.7195 19.6905C40.6739 19.6906 40.6283 19.6907 40.5813 19.6909C40.2701 19.6896 40.2701 19.6896 40.2063 19.6258C40.2022 19.5387 40.2015 19.4515 40.2027 19.3644C40.2032 19.317 40.2037 19.2697 40.2043 19.2209C40.2049 19.1843 40.2056 19.1478 40.2063 19.1101C40.2747 19.1069 40.2747 19.1069 40.3446 19.1036C40.4053 19.0999 40.466 19.0961 40.5286 19.0922C40.5884 19.0889 40.6482 19.0856 40.7099 19.0821C40.9133 19.0497 41.0562 18.9761 41.2376 18.8809C41.2403 18.1583 41.2423 17.4356 41.2435 16.713C41.2441 16.3774 41.245 16.0419 41.2463 15.7064C41.2475 15.3828 41.2482 15.0592 41.2485 14.7356C41.2487 14.6119 41.2491 14.4883 41.2497 14.3646C41.2506 14.1918 41.2507 14.0191 41.2506 13.8464C41.251 13.7948 41.2514 13.7433 41.2519 13.6902C41.2642 13.4217 41.2642 13.4217 41.123 13.2086C41.1041 13.1708 41.0852 13.133 41.0657 13.094C40.9202 13.0667 40.7792 13.0459 40.6324 13.0295C40.5713 13.0221 40.5713 13.0221 40.509 13.0146C40.4081 13.0024 40.3072 12.9908 40.2063 12.9794C40.2063 12.7903 40.2063 12.6013 40.2063 12.4065ZM43.7586 13.0367C43.756 13.7236 43.754 14.4104 43.7527 15.0972C43.7521 15.4162 43.7513 15.7351 43.75 16.0541C43.7488 16.3621 43.7481 16.67 43.7478 16.978C43.7476 17.0953 43.7472 17.2127 43.7465 17.33C43.7457 17.4947 43.7456 17.6594 43.7456 17.8241C43.7452 17.8723 43.7448 17.9204 43.7444 17.9701C43.7455 18.2999 43.7591 18.6531 43.948 18.9353C44.2229 19.1057 44.6346 19.0731 44.944 19.0242C45.2409 18.9457 45.4489 18.7642 45.6494 18.5372C45.7457 18.3607 45.764 18.279 45.764 18.0788C45.8018 18.0788 45.8397 18.0788 45.8786 18.0788C46.2037 16.7938 46.2915 14.9439 45.6349 13.7552C45.4832 13.5346 45.3101 13.3429 45.0765 13.2086C45.0008 13.2086 44.9252 13.2086 44.8473 13.2086C44.8473 13.1708 44.8473 13.133 44.8473 13.094C44.6091 13.0362 44.3864 13.0308 44.1418 13.0331C44.07 13.0336 43.9981 13.0342 43.924 13.0347C43.8695 13.0354 43.8149 13.036 43.7586 13.0367Z" fill="black"/>
<path d="M61.2341 13.0367C61.9845 13.7077 62.4765 14.3994 62.5907 15.4175C62.5943 15.5545 62.5943 15.5545 62.6665 15.6151C62.6919 15.9779 62.6798 16.3281 62.5878 16.6802C62.5605 16.7852 62.5374 16.8912 62.5161 16.9976C62.4328 17.4062 62.3183 17.7285 62.0936 18.0788C62.0698 18.1195 62.046 18.1602 62.0215 18.2021C61.8791 18.4427 61.7298 18.6349 61.5206 18.8237C61.4928 18.8491 61.4649 18.8745 61.4362 18.9007C61.2644 19.0518 61.1083 19.1542 60.8904 19.2248C60.8904 19.2626 60.8904 19.3004 60.8904 19.3393C60.7202 19.3961 60.55 19.4528 60.3747 19.5112C60.3747 19.549 60.3747 19.5869 60.3747 19.6258C60.2566 19.6549 60.1384 19.6834 60.0202 19.7118C59.9215 19.7357 59.9215 19.7357 59.8208 19.7601C59.6546 19.7928 59.5118 19.8053 59.3434 19.7977C59.3434 19.8355 59.3434 19.8733 59.3434 19.9123C58.7572 19.9123 58.1711 19.9123 57.5672 19.9123C57.5672 19.8745 57.5672 19.8367 57.5672 19.7977C57.5183 19.7935 57.5183 19.7935 57.4685 19.7892C57.1827 19.7615 56.924 19.7131 56.6504 19.6258C56.6504 19.588 56.6504 19.5502 56.6504 19.5112C56.5871 19.5008 56.5871 19.5008 56.5224 19.4902C55.7989 19.3246 55.2614 18.7297 54.8742 18.1361C54.8507 18.1 54.8271 18.0639 54.8029 18.0267C54.4327 17.4174 54.3483 16.8449 54.3478 16.1451C54.3471 16.0858 54.3464 16.0266 54.3457 15.9656C54.3437 14.8868 54.7618 14.0647 55.4886 13.2823C55.8618 12.9078 56.2872 12.6838 56.765 12.4638C56.8025 12.4454 56.8401 12.427 56.8787 12.4081C58.2114 11.8213 60.1145 12.1566 61.2341 13.0367ZM57.6388 13.2552C57.5065 13.4426 57.4687 13.5558 57.4526 13.7816C57.4148 13.7816 57.377 13.7816 57.338 13.7816C57.2329 14.1662 57.1476 14.5369 57.1209 14.9354C57.1088 15.0421 57.1088 15.0421 57.0515 15.0994C57.0457 15.2432 57.0435 15.3853 57.0439 15.5291C57.0438 15.5722 57.0438 15.6152 57.0437 15.6595C57.0437 15.7506 57.0438 15.8418 57.044 15.9329C57.0443 16.0729 57.044 16.2128 57.0437 16.3528C57.0437 16.4411 57.0438 16.5294 57.0439 16.6178C57.0438 16.6599 57.0437 16.702 57.0435 16.7455C57.0268 16.9416 57.0268 16.9416 57.1088 17.1048C57.1217 17.1825 57.1315 17.2606 57.1399 17.3389C57.2289 18.1644 57.2289 18.1644 57.6245 18.881C57.7437 18.9543 57.7437 18.9543 57.8537 18.9956C57.8537 19.0334 57.8537 19.0712 57.8537 19.1102C58.2043 19.2698 58.5961 19.3064 58.9642 19.1766C59.3108 18.9809 59.5006 18.6973 59.624 18.3243C59.6677 18.1668 59.7063 18.0086 59.7444 17.8496C59.7657 17.7846 59.787 17.7196 59.8089 17.6527C59.942 17.1109 59.9254 16.5387 59.9235 15.9839C59.9237 15.9185 59.9239 15.8531 59.9242 15.7857C59.9235 15.2379 59.9131 14.7075 59.7444 14.1827C59.713 14.0694 59.682 13.956 59.6513 13.8425C59.6289 13.7602 59.6289 13.7602 59.6061 13.6762C59.595 13.6353 59.584 13.5945 59.5725 13.5524C59.5347 13.5524 59.4969 13.5524 59.458 13.5524C59.4544 13.5205 59.4509 13.4886 59.4472 13.4557C59.3703 13.2368 59.2068 13.097 59.0148 12.9721C58.8359 12.9033 58.6788 12.9049 58.4875 12.9042C58.4184 12.9033 58.3494 12.9023 58.2782 12.9013C57.9826 12.9328 57.8433 13.0461 57.6388 13.2552Z" fill="black"/>
<path d="M0.5 11.0886C21.62 11.0886 42.74 11.0886 64.5 11.0886C64.5 11.2588 64.5 11.429 64.5 11.6043C61.7073 11.6063 58.9145 11.6081 56.1218 11.6091C56.0598 11.6092 56.0598 11.6092 55.9966 11.6092C55.0987 11.6095 54.2009 11.6099 53.303 11.6101C52.8627 11.6103 52.4225 11.6104 51.9822 11.6106C51.9383 11.6106 51.8945 11.6106 51.8494 11.6106C50.4286 11.6111 49.0077 11.612 47.5869 11.613C46.1271 11.6141 44.6673 11.6148 43.2076 11.6151C43.0015 11.6151 42.7955 11.6151 42.5894 11.6152C42.5286 11.6152 42.5286 11.6152 42.4665 11.6152C41.813 11.6153 41.1594 11.6159 40.5059 11.6165C39.8493 11.6172 39.1927 11.6175 38.5361 11.6173C38.1802 11.6172 37.8242 11.6173 37.4683 11.618C37.1428 11.6185 36.8172 11.6185 36.4917 11.6181C36.3736 11.6181 36.2555 11.6182 36.1375 11.6186C35.9775 11.6191 35.8176 11.6188 35.6577 11.6184C35.5882 11.6188 35.5882 11.6188 35.5173 11.6193C35.279 11.6179 35.0921 11.5973 34.8778 11.4897C34.8778 11.5275 34.8778 11.5653 34.8778 11.6043C23.5331 11.6043 12.1885 11.6043 0.5 11.6043C0.5 11.4341 0.5 11.2639 0.5 11.0886Z" fill="#42758B"/>
<path d="M20.6827 12.2167C20.7379 12.2211 20.7931 12.2255 20.85 12.2301C21.1681 12.2618 21.4123 12.3251 21.6997 12.4637C21.8705 12.5214 22.0351 12.566 22.2154 12.5783C22.3124 12.5236 22.4078 12.4661 22.5018 12.4065C22.6909 12.4065 22.88 12.4065 23.0748 12.4065C23.0748 13.2762 23.0748 14.146 23.0748 15.0421C22.8857 15.0421 22.6967 15.0421 22.5018 15.0421C22.4723 14.9712 22.4428 14.9003 22.4123 14.8272C22.1537 14.2469 21.8273 13.5847 21.2986 13.2086C21.2419 13.1625 21.2419 13.1625 21.184 13.1155C20.8617 12.8939 20.4104 12.9552 20.0381 12.9794C19.813 13.0333 19.598 13.1275 19.4651 13.3232C19.3189 13.6741 19.3581 13.9831 19.4078 14.3545C19.4457 14.3545 19.4835 14.3545 19.5224 14.3545C19.5473 14.3805 19.5721 14.4065 19.5976 14.4333C19.7147 14.5461 19.8287 14.5876 19.9808 14.641C19.9808 14.6788 19.9808 14.7166 19.9808 14.7556C20.0177 14.7612 20.0545 14.7668 20.0925 14.7726C20.5273 14.8446 20.9376 14.9622 21.3559 15.0994C21.402 15.1142 21.4481 15.1291 21.4956 15.1444C21.6214 15.1855 21.7465 15.2281 21.8716 15.2713C21.9262 15.2896 21.9809 15.3079 22.0372 15.3268C22.0936 15.3463 22.1501 15.3658 22.2082 15.3859C22.2601 15.4036 22.3119 15.4213 22.3653 15.4396C22.5057 15.5022 22.5718 15.5598 22.6737 15.6723C22.7477 15.7321 22.8217 15.7918 22.8958 15.8514C23.2525 16.1629 23.4781 16.5733 23.5332 17.0475C23.5772 17.7493 23.5429 18.3188 23.0804 18.8706C22.515 19.4581 22.515 19.4581 22.1008 19.5112C22.1008 19.549 22.1008 19.5868 22.1008 19.6258C22.0006 19.6548 21.9003 19.6834 21.8 19.7117C21.7162 19.7357 21.7162 19.7357 21.6308 19.7601C21.4705 19.7977 21.4705 19.7977 21.2413 19.7977C21.2413 19.8355 21.2413 19.8733 21.2413 19.9123C20.5607 19.9123 19.88 19.9123 19.1787 19.9123C19.1787 19.8745 19.1787 19.8366 19.1787 19.7977C19.1298 19.7935 19.1298 19.7935 19.08 19.7892C18.7942 19.7615 18.5355 19.7131 18.2619 19.6258C18.2619 19.588 18.2619 19.5502 18.2619 19.5112C18.0336 19.4648 18.0336 19.4648 17.8036 19.4539C17.7693 19.4905 17.735 19.5272 17.6997 19.5649C17.5111 19.7427 17.3295 19.703 17.0795 19.6967C16.9441 19.6831 16.9441 19.6831 16.8868 19.6258C16.8777 19.5109 16.8724 19.3957 16.8687 19.2804C16.8663 19.2083 16.8639 19.1361 16.8614 19.0617C16.8591 18.9835 16.8568 18.9054 16.8546 18.8272C16.8521 18.7486 16.8497 18.67 16.8472 18.5914C16.8299 18.0194 16.8225 17.4478 16.8295 16.8756C17.0375 16.8756 17.2455 16.8756 17.4598 16.8756C17.5082 16.9666 17.5567 17.0576 17.6066 17.1513C18.0779 18.0111 18.5651 18.8018 19.5323 19.1256C20.0069 19.2482 20.4123 19.1727 20.8403 18.9382C21.0395 18.7756 21.1381 18.6725 21.184 18.4226C21.1905 18.3368 21.194 18.2507 21.1948 18.1647C21.1956 18.1216 21.1964 18.0785 21.1972 18.034C21.1821 17.8887 21.1478 17.8008 21.0694 17.6777C20.8044 17.4955 20.5458 17.4036 20.2373 17.3178C20.1087 17.2805 19.9869 17.2366 19.8626 17.1871C19.6214 17.0934 19.3748 17.04 19.1214 16.9902C19.1214 16.9523 19.1214 16.9145 19.1214 16.8756C19.0827 16.868 19.044 16.8603 19.0041 16.8525C18.953 16.8424 18.9019 16.8323 18.8492 16.8218C18.7734 16.8069 18.7734 16.8069 18.6961 16.7916C18.5695 16.7653 18.4444 16.7361 18.3192 16.7037C18.3192 16.6659 18.3192 16.628 18.3192 16.5891C18.2708 16.5784 18.2223 16.5678 18.1724 16.5569C17.9169 16.45 17.7464 16.2892 17.5744 16.0734C17.5744 16.0356 17.5744 15.9978 17.5744 15.9588C17.5176 15.9399 17.4609 15.921 17.4025 15.9015C17.3344 15.6974 17.3344 15.6974 17.2879 15.5005C17.2501 15.5005 17.2123 15.5005 17.1733 15.5005C17.0088 14.9043 16.9458 14.2355 17.2306 13.667C17.5217 13.1593 17.8778 12.8218 18.3765 12.521C18.4127 12.4984 18.4489 12.4757 18.4862 12.4523C19.1331 12.1057 19.9763 12.1586 20.6827 12.2167Z" fill="black"/>
<path d="M50.8635 0.202271C51.0002 0.407372 50.9938 0.551923 50.9918 0.788539C50.9919 0.831035 50.992 0.873531 50.9921 0.917315C50.9923 1.0601 50.9917 1.20288 50.9911 1.34567C50.991 1.44786 50.991 1.55006 50.9911 1.65226C50.9911 1.93008 50.9905 2.2079 50.9897 2.48572C50.9889 2.77592 50.9889 3.06612 50.9887 3.35632C50.9884 3.90603 50.9874 4.45573 50.9863 5.00544C50.985 5.63119 50.9844 6.25694 50.9838 6.88268C50.9826 8.17006 50.9806 9.45743 50.978 10.7448C50.5994 10.753 50.5994 10.753 50.4373 10.598C50.3801 10.5439 50.3801 10.5439 50.3218 10.4888C50.2737 10.4409 50.2255 10.393 50.1759 10.3437C50.1429 10.3114 50.1099 10.2792 50.076 10.2459C49.2825 9.46938 49.2825 9.46938 49.03 9.1405C49.03 9.10268 49.03 9.06487 49.03 9.02591C48.9962 9.01209 48.9625 8.99828 48.9277 8.98405C48.7764 8.89734 48.7061 8.80477 48.6038 8.66422C48.4525 8.46219 48.2944 8.28553 48.1132 8.10916C48.0177 7.99457 47.9222 7.87998 47.8267 7.76539C47.7736 7.71339 47.7204 7.66139 47.6656 7.60782C47.5403 7.4789 47.5403 7.4789 47.5403 7.36431C47.5024 7.36431 47.4646 7.36431 47.4257 7.36431C47.3446 7.27419 47.2678 7.18031 47.1929 7.08499C46.969 6.80401 46.7347 6.53791 46.489 6.27546C46.3943 6.16109 46.3943 6.16109 46.3943 6.0465C46.36 6.03209 46.3256 6.01769 46.2903 6.00285C46.1483 5.92236 46.089 5.84693 45.9968 5.71346C45.8599 5.51628 45.706 5.35541 45.5349 5.18705C45.4316 5.07656 45.3289 4.96575 45.2269 4.85402C45.1993 4.82386 45.1717 4.79371 45.1433 4.76264C44.9909 4.59575 44.8409 4.42723 44.6934 4.25599C44.5171 4.05148 44.3268 3.86425 44.1314 3.6781C44.0452 3.58275 44.0452 3.58275 44.0452 3.46816C44.0086 3.4528 43.9719 3.43744 43.9342 3.42161C43.816 3.35357 43.816 3.35357 43.7587 3.18168C43.6831 3.14386 43.6074 3.10605 43.5295 3.06709C43.5106 5.60073 43.4917 8.13437 43.4722 10.7448C43.2453 10.7448 43.0184 10.7448 42.7847 10.7448C42.7847 7.34139 42.7847 3.93799 42.7847 0.431456C42.8603 0.412548 42.9359 0.39364 43.0139 0.374159C43.0602 0.424605 43.1065 0.47505 43.1542 0.527024C43.216 0.594246 43.2779 0.661465 43.3397 0.728681C43.3701 0.761806 43.4005 0.794932 43.4318 0.829061C43.613 1.02578 43.7986 1.21652 43.9879 1.40549C44.0758 1.50032 44.1629 1.59581 44.2493 1.69198C44.2919 1.73924 44.3345 1.78651 44.3784 1.83522C44.4623 1.93127 44.5437 2.02962 44.6224 2.12998C44.7168 2.24541 44.8019 2.32883 44.919 2.41892C45.1403 2.60196 45.3034 2.81781 45.478 3.04448C45.6093 3.20228 45.7533 3.32296 45.9131 3.45026C46.0235 3.55384 46.0595 3.67087 46.1079 3.81194C46.1646 3.83085 46.2213 3.84975 46.2797 3.86924C46.3694 3.95924 46.3694 3.95924 46.4646 4.0738C46.6703 4.31618 46.8849 4.54795 47.1034 4.77881C47.3474 5.03774 47.59 5.29743 47.8267 5.56306C47.9984 5.75556 48.1759 5.93888 48.3599 6.11946C48.5027 6.26496 48.6351 6.41894 48.7677 6.5738C48.8562 6.67788 48.8562 6.67788 48.9557 6.76897C49.03 6.84864 49.03 6.84864 49.03 6.96324C49.0637 6.97771 49.0975 6.99219 49.1323 7.0071C49.274 7.08612 49.3521 7.16872 49.4561 7.29269C49.4906 7.33339 49.5251 7.37408 49.5606 7.41601C49.5935 7.45567 49.6264 7.49534 49.6602 7.5362C49.6878 7.56936 49.7153 7.60253 49.7437 7.63669C49.7682 7.66616 49.7926 7.69563 49.8178 7.72599C49.9146 7.84158 50.0113 7.94675 50.1186 8.05187C50.1188 8.01235 50.1191 7.97284 50.1193 7.93212C50.1252 6.97198 50.1315 6.01183 50.138 5.05169C50.1412 4.58738 50.1443 4.12307 50.1471 3.65875C50.1495 3.2542 50.1522 2.84965 50.1551 2.44511C50.1566 2.23077 50.158 2.01644 50.1592 1.8021C50.1606 1.56321 50.1623 1.32433 50.1641 1.08545C50.1645 1.01387 50.1648 0.942281 50.1651 0.868526C50.1657 0.803845 50.1663 0.739165 50.1668 0.672525C50.1672 0.61596 50.1676 0.559395 50.1679 0.501115C50.1759 0.374159 50.1759 0.374159 50.2332 0.316863C50.3394 0.312723 50.4457 0.312061 50.5519 0.313282C50.6099 0.313799 50.6679 0.314316 50.7276 0.314849C50.7724 0.315514 50.8173 0.316178 50.8635 0.316863C50.8635 0.279048 50.8635 0.241232 50.8635 0.202271Z" fill="black"/>
<path d="M14.6521 0.316895C19.6388 0.316895 19.6388 0.316895 20.29 0.907091C20.7368 1.38113 20.8113 1.9176 20.7971 2.55078C20.7607 3.32365 20.3754 3.93853 19.8661 4.49953C19.6623 4.67142 19.6623 4.67142 19.5223 4.67142C19.5223 4.70923 19.5223 4.74705 19.5223 4.78601C18.5971 5.26912 18.5971 5.26912 18.0899 5.24438C18.0899 5.32001 18.0899 5.39564 18.0899 5.47356C18.0332 5.47356 17.9764 5.47356 17.918 5.47356C17.9416 5.4972 17.9653 5.52083 17.9896 5.54518C18.0227 5.57827 18.0558 5.61136 18.0899 5.64545C18.1277 5.68091 18.1655 5.71636 18.2045 5.75288C18.3191 5.87464 18.3191 5.87464 18.3905 5.99863C18.5222 6.21164 18.6787 6.39828 18.8383 6.59084C19.1196 6.93335 19.3934 7.27972 19.6617 7.63247C19.7713 7.77548 19.8835 7.91602 19.997 8.05593C20.0288 8.09518 20.0606 8.13443 20.0933 8.17487C20.1557 8.25158 20.2182 8.32811 20.281 8.40442C20.4963 8.66958 20.4963 8.66958 20.4963 8.79675C20.5341 8.79675 20.572 8.79675 20.6109 8.79675C20.6925 8.89503 20.7694 8.99722 20.8437 9.10114C20.8845 9.15764 20.9254 9.21414 20.9675 9.27236C21.0693 9.42701 21.0693 9.42701 21.1266 9.5989C21.1644 9.5989 21.2022 9.5989 21.2412 9.5989C21.3 9.69348 21.3571 9.78911 21.4131 9.88538C21.47 9.94308 21.5273 10.0003 21.585 10.0573C21.6567 10.1421 21.7271 10.2281 21.7962 10.3151C21.8497 10.3816 21.8497 10.3816 21.9043 10.4494C21.986 10.5729 21.986 10.5729 21.986 10.7448C20.6859 10.8442 20.6859 10.8442 20.4175 10.6213C20.1525 10.2822 20.1525 10.2822 20.1525 10.0573C20.0958 10.0384 20.0391 10.0195 19.9807 9.99997C19.9022 9.88676 19.8262 9.77188 19.7515 9.6562C19.6491 9.52863 19.5409 9.40648 19.4328 9.28377C19.0276 8.81727 18.6482 8.33266 18.273 7.84196C18.247 7.80807 18.2211 7.77417 18.1943 7.73924C18.1229 7.64582 18.0518 7.5522 17.9807 7.45857C17.8697 7.31199 17.8697 7.31199 17.7645 7.2126C17.6888 7.13516 17.6888 7.13516 17.5957 6.9382C17.3744 6.47681 17.0339 6.04737 16.6575 5.70275C16.6007 5.68384 16.544 5.66493 16.4856 5.64545C16.4572 5.58873 16.4572 5.58873 16.4283 5.53086C16.2203 5.47414 16.0123 5.41741 15.798 5.35897C15.798 7.1363 15.798 8.91364 15.798 10.7448C15.4388 10.7448 15.0795 10.7448 14.7094 10.7448C14.6905 7.30361 14.6716 3.86239 14.6521 0.316895ZM16.3961 0.825399C16.3162 0.839359 16.3162 0.839359 16.2347 0.8536C16.0915 0.888167 15.9807 0.927705 15.8553 1.00445C15.7766 1.16182 15.7912 1.28728 15.7915 1.46341C15.7915 1.53567 15.7915 1.60793 15.7915 1.68238C15.7918 1.76153 15.7921 1.84069 15.7924 1.91985C15.7925 2.00061 15.7926 2.08138 15.7927 2.16215C15.7929 2.37484 15.7935 2.58753 15.7941 2.80022C15.7947 3.01721 15.7949 3.23419 15.7952 3.45118C15.7958 3.87703 15.7968 4.30287 15.798 4.72871C16.0249 4.72233 16.2516 4.71487 16.4784 4.70723C16.5419 4.70545 16.6055 4.70368 16.6709 4.70185C17.0593 4.68814 17.4253 4.64784 17.8034 4.55682C17.8034 4.51901 17.8034 4.48119 17.8034 4.44223C17.8578 4.43987 17.9121 4.4375 17.9681 4.43507C18.2722 4.39269 18.5372 4.2262 18.7774 4.04116C18.7963 3.98443 18.8153 3.92771 18.8347 3.86927C18.869 3.85272 18.9033 3.83618 18.9386 3.81913C19.2216 3.67356 19.3175 3.42897 19.422 3.14232C19.5971 2.57389 19.561 2.11321 19.2931 1.57741C19.204 1.45454 19.1288 1.3842 19.0066 1.29093C18.9688 1.29093 18.931 1.29093 18.892 1.29093C18.8637 1.20585 18.8637 1.20585 18.8347 1.11904C18.1282 0.812203 17.1521 0.688707 16.3961 0.825399Z" fill="black"/>
<path d="M31.2681 12.4064C32.724 12.4064 34.1799 12.4064 35.6799 12.4064C35.6799 12.5955 35.6799 12.7846 35.6799 12.9794C35.6322 12.987 35.5846 12.9946 35.5355 13.0024C35.4733 13.0126 35.411 13.0227 35.3468 13.0331C35.285 13.0431 35.2232 13.0531 35.1595 13.0633C34.9895 13.0905 34.9895 13.0905 34.8204 13.1513C34.7358 13.3206 34.7554 13.4725 34.7548 13.6615C34.7546 13.7023 34.7544 13.743 34.7542 13.785C34.7537 13.9203 34.7536 14.0556 34.7535 14.1909C34.7533 14.2853 34.7531 14.3797 34.7529 14.4741C34.7526 14.6726 34.7525 14.8711 34.7525 15.0696C34.7525 15.3221 34.7518 15.5745 34.7508 15.827C34.7501 16.0224 34.75 16.2178 34.75 16.4132C34.75 16.5061 34.7497 16.5991 34.7493 16.692C34.7469 17.2435 34.7729 17.7646 34.8777 18.308C34.9156 18.308 34.9534 18.308 34.9923 18.308C35.0231 18.3599 35.0538 18.4119 35.0854 18.4655C35.2532 18.7313 35.5197 18.8412 35.8171 18.9149C36.2745 18.9863 36.8579 19.0084 37.2696 18.7643C37.7035 18.4278 37.8508 17.9642 37.9717 17.4485C38.0018 17.1714 38.004 16.8974 38.0022 16.6188C38.0023 16.5416 38.0026 16.4644 38.0028 16.3872C38.0032 16.2268 38.0027 16.0664 38.0016 15.9061C38.0003 15.702 38.0011 15.4981 38.0024 15.2941C38.0033 15.1352 38.003 14.9763 38.0024 14.8173C38.0022 14.7061 38.0029 14.5948 38.0036 14.4836C37.9992 14.0686 37.9702 13.6823 37.7426 13.3232C37.567 13.2229 37.567 13.2229 37.3988 13.2086C37.3988 13.1708 37.3988 13.1329 37.3988 13.094C37.3539 13.0864 37.3091 13.0788 37.2629 13.0709C37.176 13.0558 37.176 13.0558 37.0872 13.0403C37.0294 13.0303 36.9716 13.0203 36.912 13.0101C36.7685 12.9794 36.7685 12.9794 36.7112 12.9221C36.7036 12.8182 36.7036 12.8182 36.7041 12.6929C36.7038 12.6309 36.7038 12.6309 36.7036 12.5676C36.7112 12.4637 36.7112 12.4637 36.7685 12.4064C36.874 12.4011 36.9797 12.3997 37.0853 12.3999C37.153 12.3999 37.2207 12.3999 37.2904 12.3999C37.3641 12.4002 37.4377 12.4005 37.5136 12.4008C37.626 12.401 37.626 12.401 37.7407 12.4011C37.9403 12.4013 38.1399 12.4019 38.3395 12.4025C38.5431 12.4031 38.7466 12.4033 38.9501 12.4036C39.3498 12.4042 39.7494 12.4052 40.149 12.4064C40.149 12.5955 40.149 12.7846 40.149 12.9794C39.9032 13.0172 39.6574 13.055 39.4041 13.094C39.4041 13.1318 39.4041 13.1696 39.4041 13.2086C39.335 13.2316 39.335 13.2316 39.2645 13.2551C39.216 13.2776 39.1676 13.3 39.1177 13.3232C39.0988 13.3799 39.0798 13.4366 39.0604 13.4951C39.0226 13.4951 38.9847 13.4951 38.9458 13.4951C38.9451 13.5611 38.9451 13.5611 38.9444 13.6285C38.9399 14.0473 38.9349 14.4661 38.9293 14.8849C38.9265 15.1001 38.9238 15.3153 38.9216 15.5305C38.9195 15.7389 38.9168 15.9473 38.9138 16.1557C38.9128 16.2345 38.9119 16.3133 38.9112 16.392C38.9012 17.5227 38.8014 18.3406 37.9717 19.1674C37.6431 19.483 37.6431 19.483 37.3988 19.5112C37.3988 19.549 37.3988 19.5868 37.3988 19.6258C37.3094 19.6549 37.2198 19.6834 37.1302 19.7117C37.0554 19.7356 37.0554 19.7356 36.9791 19.7601C36.8262 19.7976 36.6961 19.8044 36.5393 19.7977C36.5393 19.8355 36.5393 19.8733 36.5393 19.9122C35.9721 19.9122 35.4049 19.9122 34.8204 19.9122C34.8204 19.8744 34.8204 19.8366 34.8204 19.7977C34.7664 19.7934 34.7664 19.7934 34.7112 19.7892C34.3925 19.7613 34.0974 19.7114 33.7891 19.6258C33.7891 19.588 33.7891 19.5501 33.7891 19.5112C33.7396 19.4984 33.6901 19.4856 33.6391 19.4725C33.4162 19.3852 33.2656 19.2612 33.0944 19.0994C33.0504 19.0601 33.0504 19.0601 33.0055 19.02C32.726 18.761 32.5184 18.4671 32.4713 18.0788C32.4335 18.0788 32.3957 18.0788 32.3567 18.0788C32.2414 17.5256 32.2226 16.9838 32.2184 16.4216C32.2173 16.3301 32.2162 16.2386 32.215 16.1471C32.2121 15.9086 32.2098 15.6701 32.2077 15.4317C32.2054 15.1873 32.2024 14.943 32.1996 14.6987C32.1941 14.2211 32.1892 13.7435 32.1848 13.2659C32.1281 13.247 32.0714 13.2281 32.0129 13.2086C32.0129 13.1708 32.0129 13.1329 32.0129 13.094C31.7671 13.0562 31.5213 13.0184 31.2681 12.9794C31.2681 12.7903 31.2681 12.6012 31.2681 12.4064Z" fill="black"/>
<path d="M30.4044 0.30931C30.4518 0.309256 30.4993 0.309201 30.5482 0.309144C30.648 0.309105 30.7478 0.30921 30.8476 0.30945C30.9985 0.309756 31.1493 0.309453 31.3002 0.309087C31.7888 0.308913 32.272 0.313475 32.7578 0.374216C32.7578 0.412032 32.7578 0.449847 32.7578 0.488809C32.818 0.493019 32.818 0.493019 32.8795 0.497314C33.2143 0.523693 33.5233 0.569255 33.8464 0.660698C33.8464 0.698514 33.8464 0.736329 33.8464 0.775291C33.8973 0.784708 33.8973 0.784708 33.9491 0.794315C34.4589 0.896603 34.4589 0.896603 34.6486 1.06177C34.7031 1.29365 34.5997 1.50732 34.5225 1.72493C34.4518 1.93937 34.4065 2.15842 34.3621 2.37959C34.264 2.41898 34.264 2.41898 34.1329 2.43688C34.0053 2.36884 34.0053 2.36884 33.8679 2.265C33.7931 2.20982 33.7931 2.20982 33.7168 2.15354C33.665 2.11469 33.6133 2.07584 33.5599 2.03581C33.4564 1.96134 33.3526 1.88731 33.2484 1.81379C33.2024 1.78085 33.1563 1.7479 33.1089 1.71397C32.9846 1.62595 32.9846 1.62595 32.8151 1.57744C32.8151 1.53962 32.8151 1.50181 32.8151 1.46285C32.7784 1.45243 32.7417 1.44202 32.7038 1.43129C32.4736 1.36437 32.2487 1.29883 32.0308 1.19785C31.587 1.01364 31.0961 1.04936 30.6235 1.04745C30.5152 1.04568 30.5152 1.04568 30.4048 1.04387C29.539 1.04027 28.7724 1.28345 28.1168 1.86392C27.8063 2.17499 27.5123 2.53131 27.3719 2.95255C27.3341 2.95255 27.2963 2.95255 27.2573 2.95255C27.2456 3.00019 27.2338 3.04783 27.2217 3.09691C27.2063 3.15917 27.1909 3.22144 27.175 3.28559C27.1597 3.34741 27.1444 3.40923 27.1286 3.47292C27.0991 3.58706 27.0654 3.70016 27.0281 3.812C26.9903 3.812 26.9525 3.812 26.9135 3.812C26.7446 5.11853 26.6885 6.39692 27.1414 7.65175C27.2 7.82274 27.2 7.82274 27.2 7.93733C27.2378 7.95624 27.2757 7.97515 27.3146 7.99463C27.3565 8.06847 27.3954 8.14401 27.4328 8.22023C27.8438 8.98362 28.5343 9.49543 29.3366 9.78245C29.6613 9.87791 29.9782 9.89453 30.3148 9.89503C30.3602 9.89522 30.4055 9.89541 30.4523 9.89561C30.5478 9.8959 30.6434 9.89603 30.739 9.89602C30.8839 9.89615 31.0287 9.89719 31.1735 9.89828C31.2669 9.89844 31.3602 9.89856 31.4536 9.89861C31.5176 9.89923 31.5176 9.89923 31.5828 9.89986C31.9371 9.89835 32.2841 9.85242 32.6109 9.70994C32.7639 9.654 32.8917 9.63897 33.0534 9.62422C33.1053 9.61938 33.1571 9.61455 33.2106 9.60957C33.2502 9.60606 33.2899 9.60255 33.3307 9.59893C33.3306 9.55396 33.3305 9.50899 33.3303 9.46266C33.3292 9.03942 33.3283 8.61618 33.3278 8.19294C33.3275 7.97533 33.3271 7.75772 33.3264 7.54012C33.3258 7.33022 33.3254 7.12032 33.3253 6.91042C33.3252 6.83024 33.325 6.75005 33.3247 6.66987C33.3243 6.55779 33.3242 6.4457 33.3242 6.33362C33.3241 6.26975 33.324 6.20588 33.3238 6.14007C33.3307 5.98926 33.3307 5.98926 33.388 5.87466C33.7473 5.87466 34.1065 5.87466 34.4767 5.87466C34.5603 6.04202 34.5408 6.18882 34.5405 6.3757C34.5405 6.41539 34.5405 6.45509 34.5405 6.49599C34.5404 6.62744 34.54 6.75888 34.5396 6.89033C34.5394 6.98137 34.5394 7.07242 34.5393 7.16346C34.5391 7.40328 34.5385 7.6431 34.5379 7.88291C34.5373 8.12755 34.537 8.37219 34.5368 8.61683C34.5361 9.09699 34.5352 9.57714 34.534 10.0573C34.4953 10.0642 34.4566 10.0712 34.4167 10.0783C34.3656 10.0879 34.3145 10.0975 34.2618 10.1074C34.2113 10.1167 34.1608 10.126 34.1087 10.1356C33.9675 10.1703 33.8602 10.2203 33.7318 10.2865C33.5788 10.3212 33.4277 10.3522 33.2734 10.3796C33.2327 10.3873 33.1919 10.395 33.1499 10.4029C32.9574 10.4381 32.7823 10.4584 32.5859 10.4584C32.5859 10.4962 32.5859 10.534 32.5859 10.573C31.9703 10.6748 31.371 10.7056 30.7478 10.7025C30.6018 10.7019 30.4557 10.7025 30.3097 10.7032C29.777 10.7036 29.2712 10.6769 28.747 10.573C28.747 10.5351 28.747 10.4973 28.747 10.4584C28.6891 10.4513 28.6312 10.4442 28.5716 10.4369C28.3529 10.4022 28.156 10.3511 27.9449 10.2865C27.9449 10.2487 27.9449 10.2109 27.9449 10.1719C27.8857 10.1579 27.8266 10.144 27.7656 10.1296C27.4078 10.0269 27.1417 9.77132 26.8562 9.54163C26.8147 9.50965 26.7731 9.47767 26.7302 9.44472C26.0071 8.85943 25.5419 8.02453 25.3092 7.13518C25.2899 7.07645 25.2705 7.01772 25.2505 6.95721C25.1813 6.71465 25.1791 6.48357 25.1815 6.23277C25.1815 6.18596 25.1815 6.13915 25.1815 6.09092C25.1817 5.9925 25.1822 5.89408 25.1829 5.79566C25.1839 5.64592 25.184 5.4962 25.184 5.34646C25.1843 5.25037 25.1846 5.15428 25.185 5.05819C25.1851 5.01389 25.1852 4.9696 25.1852 4.92396C25.1889 4.49552 25.2478 4.14907 25.4238 3.7547C25.4665 3.62182 25.5026 3.48858 25.5384 3.35363C25.5762 3.35363 25.6141 3.35363 25.653 3.35363C25.6625 3.30045 25.6719 3.24727 25.6817 3.19248C25.7761 2.85651 26.0145 2.59286 26.226 2.32229C26.2838 2.24762 26.2838 2.24762 26.3428 2.17144C26.8487 1.56076 27.6654 0.909911 28.4605 0.775291C28.4605 0.737475 28.4605 0.699659 28.4605 0.660698C28.5691 0.631623 28.6777 0.603078 28.7864 0.574753C28.8772 0.550823 28.8772 0.550823 28.9697 0.52641C29.1316 0.492294 29.2701 0.481483 29.4346 0.488809C29.4346 0.450993 29.4346 0.413178 29.4346 0.374216C29.7604 0.327673 30.0755 0.308454 30.4044 0.30931Z" fill="black"/>
<path d="M23.7624 12.4065C26.1826 12.4065 28.6028 12.4065 31.0963 12.4065C31.0963 13.1628 31.0963 13.9191 31.0963 14.6983C30.9072 14.6983 30.7181 14.6983 30.5233 14.6983C30.4666 14.4431 30.4666 14.4431 30.4087 14.1827C30.3709 14.1827 30.3331 14.1827 30.2942 14.1827C30.2681 14.1266 30.2681 14.1266 30.2416 14.0694C30.0132 13.5636 30.0132 13.5636 29.6066 13.2086C29.6066 13.1708 29.6066 13.133 29.6066 13.0941C29.3041 13.0941 29.0016 13.0941 28.6899 13.0941C28.6872 13.7978 28.6852 14.5016 28.6839 15.2053C28.6833 15.5321 28.6825 15.8589 28.6812 16.1857C28.68 16.5011 28.6793 16.8165 28.679 17.1319C28.6788 17.2522 28.6784 17.3725 28.6777 17.4928C28.6769 17.6614 28.6768 17.8299 28.6768 17.9985C28.6762 18.073 28.6762 18.073 28.6756 18.149C28.6765 18.4146 28.6956 18.6334 28.8045 18.881C28.8992 18.9523 28.8992 18.9523 29.0162 18.9772C29.0572 18.989 29.0982 19.0009 29.1404 19.013C29.2045 19.0292 29.2045 19.0292 29.27 19.0457C29.3132 19.0578 29.3564 19.0699 29.4009 19.0824C29.5073 19.112 29.6142 19.1399 29.7212 19.1675C29.7268 19.52 29.7268 19.52 29.7212 19.6258C29.6087 19.7383 29.3905 19.6937 29.2366 19.6949C29.1919 19.6955 29.1472 19.696 29.1011 19.6966C28.9526 19.6984 28.8041 19.6998 28.6556 19.7013C28.5529 19.7024 28.4502 19.7036 28.3476 19.7049C28.0768 19.708 27.8059 19.7109 27.5351 19.7136C27.259 19.7165 26.9829 19.7197 26.7068 19.7229C26.1646 19.729 25.6224 19.7348 25.0802 19.7404C25.0991 19.5513 25.118 19.3623 25.1375 19.1675C25.203 19.1516 25.2685 19.1357 25.336 19.1193C25.4214 19.0984 25.5069 19.0774 25.5923 19.0564C25.6571 19.0408 25.6571 19.0408 25.7233 19.0248C25.9346 18.9876 25.9346 18.9876 26.1115 18.881C26.1187 18.7014 26.1222 18.5229 26.1233 18.3433C26.1239 18.2868 26.1244 18.2303 26.125 18.1722C26.1268 17.9846 26.1282 17.7971 26.1297 17.6095C26.1308 17.4798 26.132 17.3502 26.1333 17.2205C26.1364 16.8785 26.1393 16.5365 26.142 16.1944C26.1449 15.8457 26.1481 15.497 26.1513 15.1483C26.1574 14.4636 26.1632 13.7788 26.1688 13.0941C26.134 13.0941 26.0992 13.0941 26.0633 13.0941C25.8574 13.0941 25.6514 13.0941 25.4455 13.0941C25.1611 13.1783 25.0162 13.3698 24.851 13.6097C24.8321 13.6664 24.8132 13.7232 24.7937 13.7816C24.7559 13.7816 24.7181 13.7816 24.6791 13.7816C24.6224 13.9518 24.5657 14.1219 24.5072 14.2973C24.4694 14.2973 24.4316 14.2973 24.3926 14.2973C24.3844 14.3422 24.3761 14.3871 24.3676 14.4334C24.3353 14.5838 24.3353 14.5838 24.278 14.6983C23.9944 14.7267 23.9944 14.7267 23.7051 14.7556C23.724 13.9804 23.7429 13.2052 23.7624 12.4065Z" fill="black"/>
<path d="M36.1384 0.374268C37.859 0.374268 39.5796 0.374268 41.3524 0.374268C41.3524 0.620069 41.3524 0.86587 41.3524 1.11912C41.2484 1.22311 41.0868 1.18629 40.9467 1.18818C40.8349 1.18989 40.8349 1.18989 40.7208 1.19164C40.6388 1.19262 40.5568 1.19358 40.4748 1.19455C40.3914 1.19572 40.308 1.19693 40.2246 1.19815C40.0046 1.20132 39.7847 1.20415 39.5647 1.20691C39.301 1.21029 39.0374 1.21409 38.7737 1.21781C38.3727 1.22343 37.9718 1.22852 37.5708 1.23371C37.5708 2.38709 37.5708 3.54046 37.5708 4.72879C38.7185 4.72652 38.7185 4.72652 39.8661 4.72363C40.0094 4.72346 40.1526 4.72331 40.2958 4.72319C40.3709 4.7229 40.4461 4.72261 40.5236 4.72231C40.63 4.72229 40.63 4.72229 40.7386 4.72228C40.8005 4.72216 40.8625 4.72203 40.9263 4.7219C41.0659 4.72879 41.0659 4.72879 41.1232 4.78609C41.1232 5.03189 41.1232 5.27769 41.1232 5.53094C39.932 5.53094 38.7408 5.53094 37.5135 5.53094C37.5419 5.58766 37.5419 5.58766 37.5708 5.64553C37.5761 5.77776 37.5776 5.91015 37.5773 6.04249C37.5773 6.0833 37.5774 6.12412 37.5774 6.16617C37.5773 6.30134 37.5769 6.4365 37.5764 6.57167C37.5763 6.66528 37.5762 6.7589 37.5762 6.85251C37.576 7.09911 37.5754 7.34571 37.5748 7.59231C37.5742 7.84386 37.5739 8.09541 37.5736 8.34696C37.573 8.8407 37.572 9.33443 37.5708 9.82816C37.6188 9.82875 37.6668 9.82934 37.7162 9.82995C38.1673 9.83556 38.6184 9.84143 39.0694 9.84761C39.3014 9.85077 39.5333 9.85383 39.7652 9.85666C39.9889 9.85938 40.2125 9.86238 40.4362 9.86557C40.5217 9.86674 40.6072 9.86782 40.6927 9.86879C40.8121 9.87016 40.9314 9.87189 41.0508 9.87369C41.1189 9.87459 41.1869 9.87548 41.2571 9.87639C41.4097 9.88546 41.4097 9.88546 41.467 9.94276C41.467 10.2075 41.467 10.4722 41.467 10.7449C39.7086 10.7449 37.9501 10.7449 36.1384 10.7449C36.1384 7.32259 36.1384 3.90028 36.1384 0.374268Z" fill="black"/>
<path d="M49.6138 12.3986C49.6776 12.3988 49.6776 12.3988 49.7427 12.399C49.8097 12.3988 49.8097 12.3988 49.878 12.3987C50.0262 12.3984 50.1744 12.3986 50.3226 12.3988C50.4252 12.3987 50.5277 12.3987 50.6303 12.3986C50.8455 12.3985 51.0607 12.3987 51.2759 12.3989C51.5524 12.3993 51.8289 12.3991 52.1054 12.3987C52.3173 12.3985 52.5291 12.3986 52.7409 12.3987C52.8429 12.3988 52.9449 12.3987 53.0469 12.3986C53.1892 12.3984 53.3314 12.3987 53.4737 12.399C53.5163 12.3989 53.5588 12.3988 53.6027 12.3986C53.8935 12.3999 53.8935 12.3999 53.9574 12.4637C53.965 12.5675 53.965 12.5675 53.9645 12.6929C53.9648 12.7549 53.9648 12.7549 53.965 12.8182C53.9574 12.9221 53.9574 12.9221 53.9001 12.9794C53.7367 13.0116 53.5737 13.0413 53.4095 13.0689C53.3402 13.0808 53.3402 13.0808 53.2695 13.0929C53.155 13.1126 53.0405 13.1319 52.926 13.1513C52.8497 13.3803 52.8598 13.6007 52.8595 13.8396C52.8592 13.8924 52.8589 13.9453 52.8587 13.9997C52.8578 14.1747 52.8574 14.3496 52.8571 14.5246C52.8568 14.646 52.8565 14.7673 52.8561 14.8887C52.8555 15.1432 52.8552 15.3977 52.855 15.6522C52.8547 15.9788 52.8533 16.3054 52.8517 16.632C52.8506 16.8827 52.8503 17.1333 52.8502 17.384C52.85 17.5044 52.8496 17.6249 52.8488 17.7453C52.8478 17.9135 52.848 18.0817 52.8483 18.2498C52.8478 18.2998 52.8473 18.3499 52.8467 18.4014C52.8402 18.6479 52.8402 18.6479 52.9433 18.8623C53.1003 18.9847 53.2873 19.0152 53.4775 19.0599C53.8941 19.1614 53.8941 19.1614 53.9574 19.2247C53.9645 19.4252 53.9645 19.4252 53.9574 19.6257C53.8442 19.7389 53.6224 19.6936 53.4675 19.6948C53.4223 19.6954 53.377 19.6959 53.3304 19.6965C53.18 19.6983 53.0296 19.6997 52.8793 19.7012C52.7753 19.7023 52.6713 19.7035 52.5674 19.7048C52.2932 19.7079 52.019 19.7108 51.7448 19.7135C51.4652 19.7164 51.1856 19.7196 50.906 19.7228C50.357 19.7289 49.8081 19.7347 49.2591 19.7403C49.2591 19.5513 49.2591 19.3622 49.2591 19.1674C49.3054 19.1604 49.3517 19.1535 49.3994 19.1463C49.4606 19.1367 49.5219 19.1271 49.585 19.1172C49.6454 19.1079 49.7059 19.0986 49.7683 19.089C49.9375 19.0546 50.0796 19.0173 50.2331 18.9382C50.3085 18.712 50.2984 18.4961 50.2978 18.2604C50.2979 18.2086 50.298 18.1569 50.2981 18.1036C50.2984 17.9324 50.2982 17.7612 50.298 17.5899C50.2981 17.4711 50.2981 17.3523 50.2982 17.2335C50.2983 16.9844 50.2982 16.7353 50.2979 16.4862C50.2976 16.1665 50.2977 15.8469 50.2981 15.5272C50.2983 15.2818 50.2982 15.0365 50.2981 14.7911C50.298 14.6732 50.2981 14.5554 50.2982 14.4375C50.2984 14.2729 50.2981 14.1083 50.2978 13.9437C50.2979 13.8947 50.2981 13.8458 50.2982 13.7954C50.2975 13.6044 50.2939 13.4483 50.2331 13.2658C50.1764 13.2469 50.1197 13.228 50.0612 13.2085C50.0612 13.1707 50.0612 13.1329 50.0612 13.094C49.6642 13.0656 49.6642 13.0656 49.2591 13.0367C49.2535 12.5946 49.2535 12.5946 49.2591 12.4637C49.3575 12.3653 49.4826 12.3992 49.6138 12.3986Z" fill="black"/>
<path d="M51.6726 0.309893C51.7536 0.309972 51.7536 0.309972 51.8363 0.310053C51.8981 0.309974 51.9599 0.309896 52.0235 0.309814C52.0919 0.31002 52.1603 0.310226 52.2307 0.310439C52.3023 0.31043 52.3738 0.310422 52.4475 0.310413C52.6443 0.310447 52.841 0.310735 53.0377 0.311134C53.2431 0.311491 53.4485 0.311526 53.6539 0.311594C54.0431 0.311772 54.4323 0.312243 54.8215 0.312817C55.2645 0.313456 55.7075 0.313772 56.1505 0.31406C57.062 0.314659 57.9734 0.315679 58.8849 0.316943C58.8849 0.638376 58.8849 0.959808 58.8849 1.29098C57.9395 1.29098 56.9941 1.29098 56.0201 1.29098C56.0204 1.57533 56.0207 1.85968 56.021 2.15265C56.022 3.0896 56.0226 4.02655 56.0231 4.9635C56.0234 5.53187 56.0238 6.10023 56.0244 6.6686C56.025 7.1638 56.0254 7.65899 56.0255 8.15419C56.0256 8.41657 56.0257 8.67894 56.0262 8.94131C56.0265 9.18797 56.0267 9.43463 56.0266 9.68129C56.0266 9.77209 56.0267 9.86288 56.0269 9.95368C56.0272 10.0771 56.0272 10.2005 56.027 10.324C56.027 10.3932 56.0271 10.4624 56.0272 10.5338C56.0201 10.6876 56.0201 10.6876 55.9628 10.7449C55.874 10.7505 55.785 10.7524 55.696 10.7525C55.6153 10.7526 55.6153 10.7526 55.5329 10.7527C55.4762 10.7525 55.4196 10.7523 55.3612 10.752C55.3045 10.7523 55.2479 10.7525 55.1895 10.7527C55.1357 10.7526 55.0818 10.7526 55.0264 10.7525C54.9766 10.7524 54.9269 10.7524 54.8756 10.7523C54.7596 10.7449 54.7596 10.7449 54.7023 10.6876C54.6967 10.5665 54.6953 10.4452 54.6954 10.324C54.6953 10.2855 54.6953 10.2471 54.6952 10.2075C54.6952 10.0779 54.6955 9.94818 54.6958 9.8185C54.6958 9.72591 54.6958 9.63333 54.6958 9.54074C54.6957 9.2886 54.6961 9.03646 54.6965 8.78432C54.6968 8.52112 54.6969 8.25791 54.6969 7.9947C54.6971 7.49592 54.6976 6.99715 54.6982 6.49837C54.6988 5.93068 54.6991 5.36299 54.6994 4.79531C54.7 3.6272 54.701 2.45909 54.7023 1.29098C54.6445 1.29136 54.6445 1.29136 54.5856 1.29175C54.186 1.29428 53.7863 1.29601 53.3867 1.29728C53.2374 1.29785 53.0881 1.29864 52.9388 1.29963C52.7246 1.30101 52.5105 1.30166 52.2963 1.30217C52.1957 1.30306 52.1957 1.30306 52.093 1.30396C52.0001 1.30398 52.0001 1.30398 51.9053 1.30399C51.8506 1.30424 51.7959 1.3045 51.7395 1.30476C51.6083 1.29098 51.6083 1.29098 51.4937 1.17639C51.4805 0.991742 51.4805 0.991742 51.483 0.771733C51.4833 0.698982 51.4837 0.626232 51.4841 0.551276C51.4966 0.320095 51.4966 0.320095 51.6726 0.309893Z" fill="black"/>
<path d="M6.68808 0.202271C6.7448 0.221178 6.80152 0.240086 6.85996 0.259567C6.95869 0.265275 7.05761 0.2677 7.1565 0.268247C7.21788 0.268725 7.27926 0.269203 7.3425 0.269695C7.40983 0.269935 7.47717 0.270175 7.54654 0.270422C7.61745 0.270897 7.68835 0.271372 7.76141 0.271862C7.9156 0.27286 8.06979 0.273756 8.22399 0.274485C8.46759 0.275643 8.71119 0.277227 8.95478 0.278878C9.51569 0.282613 10.0766 0.285792 10.6375 0.288961C11.1519 0.291872 11.6662 0.294899 12.1805 0.298388C12.4229 0.300016 12.6653 0.301366 12.9077 0.302509C13.0934 0.303453 13.2791 0.30476 13.4648 0.306008C13.5324 0.306248 13.6 0.306488 13.6696 0.306735C13.7307 0.307213 13.7917 0.307691 13.8546 0.308183C13.908 0.308479 13.9614 0.308774 14.0164 0.309078C14.1366 0.316863 14.1366 0.316863 14.1939 0.374159C14.1996 0.506557 14.2013 0.639134 14.2011 0.771653C14.2012 0.844256 14.2014 0.916859 14.2015 0.991662C14.1939 1.17631 14.1939 1.17631 14.1366 1.2909C13.1156 1.2909 12.0946 1.2909 11.0426 1.2909C11.0426 4.41069 11.0426 7.53047 11.0426 10.7448C10.6266 10.7448 10.2107 10.7448 9.78208 10.7448C9.78208 7.62501 9.78208 4.50522 9.78208 1.2909C8.74215 1.2909 7.70222 1.2909 6.63078 1.2909C6.51773 1.17786 6.56288 0.965178 6.56274 0.811044C6.56204 0.771751 6.56134 0.732459 6.56061 0.691975C6.55999 0.477696 6.56622 0.385047 6.68808 0.202271Z" fill="black"/>
<path d="M22.6165 0.316895C23.0135 0.316895 23.4106 0.316895 23.8197 0.316895C23.8662 0.926276 23.8853 1.529 23.8844 2.13993C23.8845 2.23301 23.8846 2.32609 23.8847 2.41917C23.885 2.66902 23.8849 2.91887 23.8847 3.16872C23.8845 3.43103 23.8847 3.69334 23.8848 3.95565C23.8849 4.39511 23.8847 4.83456 23.8844 5.27402C23.8841 5.78231 23.8842 6.29061 23.8845 6.7989C23.8848 7.23627 23.8848 7.67363 23.8847 8.111C23.8846 8.37185 23.8846 8.63271 23.8848 8.89356C23.8849 9.13807 23.8848 9.38258 23.8845 9.62709C23.8844 9.71694 23.8844 9.80679 23.8846 9.89664C23.8847 10.0189 23.8845 10.1411 23.8842 10.2633C23.8842 10.3318 23.8842 10.4003 23.8842 10.4709C23.877 10.6302 23.877 10.6302 23.8197 10.7448C23.4226 10.7448 23.0256 10.7448 22.6165 10.7448C22.6165 7.30361 22.6165 3.86239 22.6165 0.316895Z" fill="black"/>
<path d="M0.5 11.0886C21.62 11.0886 42.74 11.0886 64.5 11.0886C64.5 11.1453 64.5 11.2021 64.5 11.2605C43.38 11.2605 22.26 11.2605 0.5 11.2605C0.5 11.2038 0.5 11.1471 0.5 11.0886Z" fill="#2B4957"/>
<path d="M54.9314 10.8021C55.1772 10.8021 55.423 10.8021 55.6762 10.8021C55.6762 10.821 55.6762 10.8399 55.6762 10.8594C55.4304 10.8594 55.1846 10.8594 54.9314 10.8594C54.9314 10.8405 54.9314 10.8216 54.9314 10.8021Z" fill="black"/>
<path d="M23.5332 0.14502C23.6466 0.201743 23.6466 0.201743 23.7624 0.259612C23.6868 0.259612 23.6111 0.259612 23.5332 0.259612C23.5332 0.221797 23.5332 0.183981 23.5332 0.14502Z" fill="black"/>
<path d="M4.45337 10.9167C4.54791 10.9167 4.64245 10.9167 4.73985 10.9167C4.73985 10.9357 4.73985 10.9546 4.73985 10.974C4.64531 10.974 4.55077 10.974 4.45337 10.974C4.45337 10.9551 4.45337 10.9362 4.45337 10.9167Z" fill="#666633"/>
<path d="M43.0713 10.8021C43.1469 10.821 43.2226 10.8399 43.3005 10.8594C43.2248 10.8783 43.1492 10.8972 43.0713 10.9167C43.0713 10.8789 43.0713 10.8411 43.0713 10.8021Z" fill="black"/>
<path d="M4.05249 14.6982C4.09031 14.6982 4.12812 14.6982 4.16708 14.6982C4.16708 14.7361 4.16708 14.7739 4.16708 14.8128C4.12927 14.8128 4.09145 14.8128 4.05249 14.8128C4.05249 14.775 4.05249 14.7372 4.05249 14.6982Z" fill="black"/>
<path d="M31.1536 12.6356C31.2109 12.8648 31.2109 12.8648 31.2109 12.8648L31.1536 12.6356Z" fill="black"/>
<path d="M10.6987 10.8021C10.9279 10.8594 10.9279 10.8594 10.9279 10.8594L10.6987 10.8021Z" fill="black"/>
<path d="M1.24487 10.9167C1.41676 10.974 1.41676 10.974 1.41676 10.974L1.24487 10.9167Z" fill="#555500"/>
<path d="M46.8528 6.79138C46.8906 6.8292 46.9284 6.86701 46.9674 6.90597C46.9296 6.90597 46.8917 6.90597 46.8528 6.90597C46.8528 6.86816 46.8528 6.83034 46.8528 6.79138Z" fill="black"/>
<path d="M17.8608 19.4539C17.9754 19.5112 17.9754 19.5112 17.9754 19.5112L17.8608 19.4539Z" fill="black"/>
<path d="M22.6736 15.0994C22.7882 15.1567 22.7882 15.1567 22.7882 15.1567L22.6736 15.0994Z" fill="black"/>
<path d="M19.5796 13.2659C19.6942 13.3232 19.6942 13.3232 19.6942 13.3232L19.5796 13.2659Z" fill="black"/>
<path d="M3.42212 10.9167C3.53671 10.974 3.53671 10.974 3.53671 10.974L3.42212 10.9167Z" fill="black"/>
<path d="M36.4248 10.8021C36.5394 10.8594 36.5394 10.8594 36.5394 10.8594L36.4248 10.8021Z" fill="black"/>
<path d="M23.304 10.8021C23.4185 10.8594 23.4185 10.8594 23.4185 10.8594L23.304 10.8021Z" fill="black"/>
</g>
<defs>
<clipPath id="clip0_74_277">
<rect width="64" height="19.8245" fill="white" transform="translate(0.5 0.0877686)"/>
</clipPath>
</defs>
</svg>
