<svg width="65" height="20" viewBox="0 0 65 20" fill="none" xmlns="http://www.w3.org/2000/svg">
<g clip-path="url(#clip0_74_309)">
<path d="M4.10967 12.2041C4.63909 12.2041 5.1685 12.2041 5.71397 12.2041C5.71397 12.2419 5.71397 12.2797 5.71397 12.3187C5.77069 12.3471 5.77069 12.3471 5.82856 12.376C5.87735 12.4758 5.87735 12.4758 5.92167 12.598C5.94404 12.6581 5.94404 12.6581 5.96688 12.7193C6.00045 12.8344 6.00045 12.8344 6.00045 13.0063C6.03826 13.0063 6.07608 13.0063 6.11504 13.0063C6.13373 13.0595 6.15241 13.1128 6.17167 13.1676C6.1967 13.2385 6.22174 13.3093 6.24754 13.3823C6.27213 13.4521 6.29673 13.5218 6.32207 13.5938C6.3993 13.8024 6.4856 14.0051 6.57341 14.2095C6.63125 14.3592 6.68645 14.5099 6.74172 14.6607C6.83217 14.9049 6.9226 15.1474 7.03178 15.384C7.22567 15.8063 7.37593 16.2484 7.5364 16.6842C7.58171 16.8071 7.62724 16.93 7.67278 17.0528C7.6864 17.0901 7.70002 17.1273 7.71405 17.1657C7.77722 17.336 7.84527 17.4977 7.92748 17.6598C8.01939 17.8467 8.0425 18.0141 8.06312 18.2202C8.10093 18.2202 8.13875 18.2202 8.17771 18.2202C8.20016 18.2817 8.22261 18.3431 8.24575 18.4064C8.35748 18.6661 8.51868 18.7902 8.76858 18.9185C9.18757 19.0452 9.59393 19.051 10.0112 18.9078C10.1457 18.813 10.2283 18.7386 10.2616 18.5733C10.2703 18.4377 10.2713 18.3038 10.27 18.168C10.2704 18.1164 10.2708 18.0649 10.2712 18.0118C10.2723 17.8414 10.2716 17.671 10.2708 17.5007C10.271 17.3822 10.2712 17.2637 10.2715 17.1453C10.2718 16.897 10.2713 16.6487 10.2703 16.4004C10.269 16.0823 10.2697 15.7641 10.2711 15.446C10.2719 15.2013 10.2716 14.9567 10.271 14.7121C10.2709 14.5947 10.2711 14.4774 10.2716 14.3601C10.2722 14.1961 10.2713 14.0321 10.27 13.8681C10.2705 13.8196 10.271 13.7712 10.2714 13.7213C10.2682 13.4945 10.2564 13.3765 10.1363 13.1785C9.96618 13.0222 9.82154 12.9994 9.59579 12.9597C9.52341 12.9463 9.45103 12.933 9.37645 12.9192C9.32121 12.9101 9.26596 12.901 9.20904 12.8917C9.20904 12.7026 9.20904 12.5135 9.20904 12.3187C10.7217 12.3187 12.2343 12.3187 13.7927 12.3187C13.8712 12.4756 13.8573 12.6035 13.85 12.7771C13.8311 12.8149 13.8122 12.8527 13.7927 12.8917C13.6079 12.9222 13.4232 12.9393 13.2368 12.9572C12.9943 13.0201 12.9148 13.0951 12.7614 13.2927C12.7206 13.4636 12.7234 13.6295 12.7262 13.8046C12.7257 13.8811 12.7257 13.8811 12.7252 13.9591C12.7245 14.1274 12.7259 14.2955 12.7274 14.4637C12.7275 14.5808 12.7275 14.6979 12.7274 14.815C12.7275 15.0602 12.7286 15.3055 12.7304 15.5507C12.7326 15.865 12.7329 16.1792 12.7325 16.4934C12.7323 16.7352 12.733 16.9769 12.734 17.2187C12.7344 17.3345 12.7345 17.4504 12.7345 17.5662C12.7346 17.7282 12.7358 17.8902 12.7374 18.0521C12.7372 18.0999 12.737 18.1478 12.7368 18.197C12.7407 18.4593 12.7578 18.6408 12.9333 18.8505C13.0842 18.9071 13.2145 18.9466 13.3702 18.9794C13.789 19.0759 13.789 19.0759 13.85 19.137C13.8572 19.3375 13.8572 19.3375 13.85 19.538C13.7927 19.5953 13.7927 19.5953 13.6443 19.6024C13.5776 19.6023 13.5109 19.6023 13.4422 19.6022C13.4052 19.6023 13.3681 19.6023 13.33 19.6024C13.2051 19.6025 13.0802 19.6021 12.9552 19.6018C12.866 19.6018 12.7768 19.6018 12.6876 19.6019C12.4447 19.6019 12.2018 19.6015 11.9589 19.6011C11.7053 19.6008 11.4518 19.6007 11.1982 19.6007C10.7177 19.6005 10.2372 19.6 9.75665 19.5995C9.20975 19.5988 8.66284 19.5985 8.11594 19.5982C6.9906 19.5976 5.86527 19.5966 4.73993 19.5953C4.73993 19.4252 4.73993 19.255 4.73993 19.0797C5.06136 19.004 5.38279 18.9284 5.71397 18.8505C5.65127 18.4984 5.57598 18.2031 5.42748 17.8764C5.37076 17.7063 5.31404 17.5361 5.2556 17.3608C4.09277 17.3324 4.09277 17.3324 2.90645 17.3035C2.90645 17.3791 2.90645 17.4547 2.90645 17.5327C2.86863 17.5327 2.83081 17.5327 2.79185 17.5327C2.78122 17.6319 2.78122 17.6319 2.77037 17.7332C2.74013 17.9786 2.68391 18.2107 2.61996 18.4494C2.58215 18.4494 2.54433 18.4494 2.50537 18.4494C2.52428 18.5628 2.54319 18.6763 2.56267 18.7932C2.90301 18.8877 3.24335 18.9823 3.594 19.0797C3.594 19.2498 3.594 19.42 3.594 19.5953C2.57298 19.5953 1.55196 19.5953 0.5 19.5953C0.5 19.4252 0.5 19.255 0.5 19.0797C0.567359 19.0548 0.634718 19.03 0.704118 19.0045C0.788924 18.9724 0.873674 18.9401 0.958371 18.9078C0.996555 18.8934 1.03474 18.879 1.07408 18.8641C1.27302 18.785 1.35199 18.7471 1.47404 18.564C1.51185 18.564 1.54967 18.564 1.58863 18.564C1.62645 18.4127 1.66426 18.2615 1.70322 18.1056C1.74104 18.1056 1.77885 18.1056 1.81782 18.1056C1.82823 18.0593 1.83864 18.013 1.84937 17.9653C1.86378 17.9041 1.87818 17.8428 1.89302 17.7798C1.90698 17.7193 1.92094 17.6588 1.93532 17.5964C1.98958 17.4185 2.06334 17.2884 2.16159 17.1316C2.20294 16.9988 2.24184 16.8652 2.27619 16.7305C2.314 16.7305 2.35182 16.7305 2.39078 16.7305C2.40053 16.6869 2.41028 16.6432 2.42032 16.5982C2.50947 16.2184 2.62206 15.8778 2.79185 15.5273C2.95242 15.1727 3.07326 14.8086 3.19293 14.4387C3.23074 14.4387 3.26856 14.4387 3.30752 14.4387C3.39261 14.0983 3.39261 14.0983 3.47941 13.7511C3.51722 13.7511 3.55504 13.7511 3.594 13.7511C3.67909 13.4108 3.67909 13.4108 3.76589 13.0635C3.80371 13.0635 3.84152 13.0635 3.88048 13.0635C3.90797 12.9633 3.93542 12.863 3.96285 12.7627C3.97814 12.7069 3.99342 12.6511 4.00918 12.5935C4.04407 12.4641 4.07715 12.3342 4.10967 12.2041ZM4.05237 14.3814C3.91217 14.6313 3.85168 14.8413 3.82319 15.1262C3.78537 15.1262 3.74756 15.1262 3.70859 15.1262C3.67951 15.2072 3.65097 15.2884 3.62265 15.3697C3.6067 15.4149 3.59074 15.4601 3.57431 15.5067C3.52647 15.6553 3.52647 15.6553 3.53671 15.8711C3.49889 15.8711 3.46107 15.8711 3.42211 15.8711C3.39314 15.9533 3.36457 16.0357 3.33617 16.1182C3.32021 16.164 3.30426 16.2099 3.28782 16.2571C3.24224 16.3918 3.24224 16.3918 3.25022 16.5586C3.74183 16.5586 4.23343 16.5586 4.73993 16.5586C4.73993 16.5208 4.73993 16.483 4.73993 16.444C4.77774 16.444 4.81556 16.444 4.85452 16.444C4.82561 16.1549 4.75849 15.9553 4.62534 15.6992C4.57924 15.5673 4.53705 15.4346 4.4962 15.301C4.45323 15.1685 4.45323 15.1685 4.33885 15.0116C4.29148 14.8634 4.25183 14.7139 4.21173 14.5635C4.17954 14.4284 4.17954 14.4284 4.05237 14.3814ZM4.85452 16.444C4.91182 16.5586 4.91182 16.5586 4.91182 16.5586L4.85452 16.444Z" fill="white"/>
<path d="M40.2063 12.3187C40.7981 12.3147 41.3899 12.3116 41.9817 12.3098C42.2566 12.3089 42.5315 12.3077 42.8065 12.3057C45.8094 12.2848 45.8094 12.2848 46.9672 12.8343C46.9672 12.8722 46.9672 12.91 46.9672 12.9489C47.017 12.9619 47.0668 12.9749 47.1181 12.9883C47.3359 13.0732 47.4815 13.191 47.6476 13.35C47.6921 13.392 47.6921 13.392 47.7375 13.4348C48.1584 13.8395 48.4946 14.1861 48.5715 14.7824C48.6094 14.7824 48.6472 14.7824 48.6861 14.7824C48.8435 15.5902 48.8603 16.3817 48.6861 17.1889C48.6483 17.1889 48.6105 17.1889 48.5715 17.1889C48.5609 17.2651 48.5609 17.2651 48.5501 17.3429C48.4971 17.6237 48.43 17.7931 48.2278 17.991C48.1279 18.108 48.0291 18.2258 47.9308 18.344C47.8267 18.4494 47.8267 18.4494 47.7029 18.51C47.5769 18.559 47.5769 18.559 47.5402 18.7359C47.2826 18.9476 47.0025 19.0632 46.6808 19.1369C46.6808 19.1748 46.6808 19.2126 46.6808 19.2515C46.571 19.2805 46.4612 19.3091 46.3513 19.3375C46.2902 19.3534 46.229 19.3694 46.166 19.3858C45.9932 19.4234 45.9932 19.4234 45.764 19.4234C45.764 19.4612 45.764 19.4991 45.764 19.538C45.418 19.5812 45.0816 19.6036 44.7331 19.6027C44.6602 19.6029 44.6602 19.6029 44.5859 19.603C44.4271 19.6033 44.2683 19.6031 44.1096 19.6029C43.9987 19.603 43.8878 19.603 43.7769 19.6031C43.5456 19.6032 43.3142 19.6031 43.0829 19.6028C42.7857 19.6025 42.4885 19.6026 42.1914 19.603C41.9629 19.6032 41.7345 19.6031 41.506 19.603C41.3963 19.6029 41.2867 19.603 41.177 19.6031C41.0245 19.6033 40.872 19.6031 40.7195 19.6027C40.6739 19.6028 40.6283 19.603 40.5813 19.6031C40.2701 19.6019 40.2701 19.6019 40.2063 19.538C40.2022 19.451 40.2015 19.3637 40.2027 19.2766C40.2032 19.2293 40.2037 19.1819 40.2043 19.1331C40.2049 19.0966 40.2056 19.06 40.2063 19.0224C40.2747 19.0191 40.2747 19.0191 40.3446 19.0159C40.4053 19.0121 40.466 19.0083 40.5286 19.0044C40.5884 19.0011 40.6482 18.9978 40.7099 18.9944C40.9133 18.962 41.0562 18.8883 41.2376 18.7932C41.2403 18.0705 41.2423 17.3478 41.2435 16.6252C41.2441 16.2897 41.245 15.9541 41.2463 15.6186C41.2475 15.295 41.2482 14.9714 41.2485 14.6479C41.2487 14.5242 41.2491 14.4005 41.2497 14.2768C41.2506 14.1041 41.2507 13.9314 41.2506 13.7586C41.251 13.7071 41.2514 13.6555 41.2519 13.6024C41.2642 13.334 41.2642 13.334 41.123 13.1208C41.1041 13.083 41.0852 13.0452 41.0657 13.0062C40.9202 12.979 40.7792 12.9581 40.6324 12.9418C40.5713 12.9344 40.5713 12.9344 40.509 12.9268C40.4081 12.9146 40.3072 12.9031 40.2063 12.8916C40.2063 12.7026 40.2063 12.5135 40.2063 12.3187ZM43.7586 12.9489C43.756 13.6358 43.754 14.3226 43.7527 15.0095C43.7521 15.3284 43.7513 15.6474 43.75 15.9663C43.7488 16.2743 43.7481 16.5823 43.7478 16.8902C43.7476 17.0076 43.7472 17.1249 43.7465 17.2422C43.7457 17.4069 43.7456 17.5716 43.7456 17.7363C43.7452 17.7845 43.7448 17.8327 43.7444 17.8823C43.7455 18.2121 43.7591 18.5654 43.948 18.8476C44.2229 19.0179 44.6346 18.9854 44.944 18.9364C45.2409 18.8579 45.4489 18.6764 45.6494 18.4494C45.7457 18.2729 45.764 18.1912 45.764 17.991C45.8018 17.991 45.8397 17.991 45.8786 17.991C46.2037 16.706 46.2915 14.8561 45.6349 13.6674C45.4832 13.4469 45.3101 13.2552 45.0765 13.1208C45.0008 13.1208 44.9252 13.1208 44.8473 13.1208C44.8473 13.083 44.8473 13.0452 44.8473 13.0062C44.6091 12.9484 44.3864 12.9431 44.1418 12.9454C44.07 12.9459 43.9981 12.9464 43.924 12.9469C43.8695 12.9476 43.8149 12.9483 43.7586 12.9489Z" fill="white"/>
<path d="M61.2341 12.949C61.9845 13.62 62.4765 14.3116 62.5907 15.3297C62.5943 15.4667 62.5943 15.4667 62.6665 15.5273C62.6919 15.8901 62.6798 16.2404 62.5878 16.5924C62.5605 16.6974 62.5374 16.8035 62.5161 16.9098C62.4328 17.3185 62.3183 17.6407 62.0936 17.9911C62.0698 18.0318 62.046 18.0724 62.0215 18.1144C61.8791 18.3549 61.7298 18.5471 61.5206 18.7359C61.4928 18.7613 61.4649 18.7867 61.4362 18.8129C61.2644 18.9641 61.1083 19.0665 60.8904 19.137C60.8904 19.1748 60.8904 19.2126 60.8904 19.2516C60.7202 19.3083 60.55 19.365 60.3747 19.4235C60.3747 19.4613 60.3747 19.4991 60.3747 19.5381C60.2566 19.5671 60.1384 19.5957 60.0202 19.624C59.9215 19.6479 59.9215 19.6479 59.8208 19.6723C59.6546 19.7051 59.5118 19.7176 59.3434 19.7099C59.3434 19.7478 59.3434 19.7856 59.3434 19.8245C58.7572 19.8245 58.1711 19.8245 57.5672 19.8245C57.5672 19.7867 57.5672 19.7489 57.5672 19.7099C57.5183 19.7057 57.5183 19.7057 57.4685 19.7014C57.1827 19.6738 56.924 19.6254 56.6504 19.5381C56.6504 19.5002 56.6504 19.4624 56.6504 19.4235C56.5871 19.413 56.5871 19.413 56.5224 19.4024C55.7989 19.2369 55.2614 18.6419 54.8742 18.0484C54.8507 18.0122 54.8271 17.9761 54.8029 17.9389C54.4327 17.3296 54.3483 16.7571 54.3478 16.0573C54.3471 15.9981 54.3464 15.9388 54.3457 15.8778C54.3437 14.799 54.7618 13.9769 55.4886 13.1945C55.8618 12.8201 56.2872 12.596 56.765 12.376C56.8025 12.3576 56.8401 12.3392 56.8787 12.3203C58.2114 11.7336 60.1145 12.0688 61.2341 12.949ZM57.6388 13.1674C57.5065 13.3548 57.4687 13.468 57.4526 13.6938C57.4148 13.6938 57.377 13.6938 57.338 13.6938C57.2329 14.0784 57.1476 14.4492 57.1209 14.8476C57.1088 14.9543 57.1088 14.9543 57.0515 15.0116C57.0457 15.1554 57.0435 15.2976 57.0439 15.4414C57.0438 15.4844 57.0438 15.5274 57.0437 15.5717C57.0437 15.6629 57.0438 15.754 57.044 15.8451C57.0443 15.9851 57.044 16.125 57.0437 16.265C57.0437 16.3533 57.0438 16.4417 57.0439 16.53C57.0438 16.5721 57.0437 16.6143 57.0435 16.6577C57.0268 16.8539 57.0268 16.8539 57.1088 17.017C57.1217 17.0947 57.1315 17.1729 57.1399 17.2511C57.2289 18.0766 57.2289 18.0766 57.6245 18.7932C57.7437 18.8665 57.7437 18.8665 57.8537 18.9078C57.8537 18.9456 57.8537 18.9834 57.8537 19.0224C58.2043 19.182 58.5961 19.2186 58.9642 19.0889C59.3108 18.8932 59.5006 18.6096 59.624 18.2366C59.6677 18.079 59.7063 17.9208 59.7444 17.7619C59.7657 17.6969 59.787 17.6319 59.8089 17.5649C59.942 17.0231 59.9254 16.4509 59.9235 15.8962C59.9237 15.8308 59.9239 15.7654 59.9242 15.698C59.9235 15.1501 59.9131 14.6197 59.7444 14.0949C59.713 13.9816 59.682 13.8682 59.6513 13.7547C59.6289 13.6724 59.6289 13.6724 59.6061 13.5884C59.595 13.5476 59.584 13.5067 59.5725 13.4646C59.5347 13.4646 59.4969 13.4646 59.458 13.4646C59.4544 13.4327 59.4509 13.4008 59.4472 13.368C59.3703 13.1491 59.2068 13.0092 59.0148 12.8843C58.8359 12.8155 58.6788 12.8171 58.4875 12.8165C58.4184 12.8155 58.3494 12.8146 58.2782 12.8136C57.9826 12.8451 57.8433 12.9583 57.6388 13.1674Z" fill="white"/>
<path d="M0.5 11.0009C21.62 11.0009 42.74 11.0009 64.5 11.0009C64.5 11.171 64.5 11.3412 64.5 11.5165C61.7073 11.5185 58.9145 11.5203 56.1218 11.5214C56.0598 11.5214 56.0598 11.5214 55.9966 11.5214C55.0987 11.5218 54.2009 11.5221 53.303 11.5224C52.8627 11.5225 52.4225 11.5227 51.9822 11.5228C51.9383 11.5228 51.8945 11.5228 51.8494 11.5229C50.4286 11.5234 49.0077 11.5242 47.5869 11.5253C46.1271 11.5263 44.6673 11.5271 43.2076 11.5273C43.0015 11.5273 42.7955 11.5274 42.5894 11.5274C42.5286 11.5274 42.5286 11.5274 42.4665 11.5274C41.813 11.5276 41.1594 11.5281 40.5059 11.5288C39.8493 11.5294 39.1927 11.5297 38.5361 11.5295C38.1802 11.5295 37.8242 11.5296 37.4683 11.5302C37.1428 11.5307 36.8172 11.5308 36.4917 11.5304C36.3736 11.5303 36.2555 11.5305 36.1375 11.5308C35.9775 11.5313 35.8176 11.531 35.6577 11.5306C35.5882 11.5311 35.5882 11.5311 35.5173 11.5315C35.279 11.5301 35.0921 11.5095 34.8778 11.4019C34.8778 11.4397 34.8778 11.4776 34.8778 11.5165C23.5331 11.5165 12.1885 11.5165 0.5 11.5165C0.5 11.3464 0.5 11.1762 0.5 11.0009Z" fill="#42758B"/>
<path d="M20.6827 12.1289C20.7379 12.1333 20.7931 12.1378 20.85 12.1423C21.1681 12.174 21.4123 12.2373 21.6997 12.376C21.8705 12.4336 22.0351 12.4782 22.2154 12.4906C22.3124 12.4359 22.4078 12.3783 22.5018 12.3187C22.6909 12.3187 22.88 12.3187 23.0748 12.3187C23.0748 13.1884 23.0748 14.0582 23.0748 14.9543C22.8857 14.9543 22.6967 14.9543 22.5018 14.9543C22.4723 14.8834 22.4428 14.8125 22.4123 14.7395C22.1537 14.1591 21.8273 13.4969 21.2986 13.1208C21.2419 13.0747 21.2419 13.0747 21.184 13.0277C20.8617 12.8062 20.4104 12.8675 20.0381 12.8916C19.813 12.9455 19.598 13.0397 19.4651 13.2354C19.3189 13.5864 19.3581 13.8953 19.4078 14.2668C19.4457 14.2668 19.4835 14.2668 19.5224 14.2668C19.5473 14.2928 19.5721 14.3188 19.5976 14.3455C19.7147 14.4583 19.8287 14.4998 19.9808 14.5532C19.9808 14.5911 19.9808 14.6289 19.9808 14.6678C20.0177 14.6734 20.0545 14.6791 20.0925 14.6848C20.5273 14.7568 20.9376 14.8745 21.3559 15.0116C21.402 15.0265 21.4481 15.0413 21.4956 15.0566C21.6214 15.0977 21.7465 15.1404 21.8716 15.1835C21.9262 15.2018 21.9809 15.2201 22.0372 15.239C22.0936 15.2585 22.1501 15.278 22.2082 15.2981C22.2601 15.3158 22.3119 15.3335 22.3653 15.3518C22.5057 15.4144 22.5718 15.472 22.6737 15.5846C22.7477 15.6443 22.8217 15.704 22.8958 15.7636C23.2525 16.0751 23.4781 16.4855 23.5332 16.9597C23.5772 17.6615 23.5429 18.231 23.0804 18.7829C22.515 19.3704 22.515 19.3704 22.1008 19.4234C22.1008 19.4612 22.1008 19.4991 22.1008 19.538C22.0006 19.567 21.9003 19.5956 21.8 19.624C21.7162 19.6479 21.7162 19.6479 21.6308 19.6723C21.4705 19.7099 21.4705 19.7099 21.2413 19.7099C21.2413 19.7477 21.2413 19.7855 21.2413 19.8245C20.5607 19.8245 19.88 19.8245 19.1787 19.8245C19.1787 19.7867 19.1787 19.7489 19.1787 19.7099C19.1298 19.7057 19.1298 19.7057 19.08 19.7014C18.7942 19.6737 18.5355 19.6253 18.2619 19.538C18.2619 19.5002 18.2619 19.4624 18.2619 19.4234C18.0336 19.3771 18.0336 19.3771 17.8036 19.3661C17.7693 19.4028 17.735 19.4394 17.6997 19.4771C17.5111 19.655 17.3295 19.6153 17.0795 19.609C16.9441 19.5953 16.9441 19.5953 16.8868 19.538C16.8777 19.4231 16.8724 19.3079 16.8687 19.1927C16.8663 19.1205 16.8639 19.0483 16.8614 18.9739C16.8591 18.8958 16.8568 18.8176 16.8546 18.7395C16.8521 18.6608 16.8497 18.5822 16.8472 18.5036C16.8299 17.9316 16.8225 17.3601 16.8295 16.7878C17.0375 16.7878 17.2455 16.7878 17.4598 16.7878C17.5082 16.8788 17.5567 16.9698 17.6066 17.0635C18.0779 17.9233 18.5651 18.7141 19.5323 19.0378C20.0069 19.1604 20.4123 19.0849 20.8403 18.8505C21.0395 18.6878 21.1381 18.5848 21.184 18.3348C21.1905 18.249 21.194 18.163 21.1948 18.077C21.1956 18.0338 21.1964 17.9907 21.1972 17.9463C21.1821 17.8009 21.1478 17.713 21.0694 17.5899C20.8044 17.4077 20.5458 17.3158 20.2373 17.2301C20.1087 17.1927 19.9869 17.1489 19.8626 17.0993C19.6214 17.0056 19.3748 16.9523 19.1214 16.9024C19.1214 16.8646 19.1214 16.8268 19.1214 16.7878C19.0827 16.7802 19.044 16.7726 19.0041 16.7647C18.953 16.7546 18.9019 16.7445 18.8492 16.7341C18.7734 16.7191 18.7734 16.7191 18.6961 16.7039C18.5695 16.6776 18.4444 16.6484 18.3192 16.6159C18.3192 16.5781 18.3192 16.5403 18.3192 16.5013C18.2708 16.4907 18.2223 16.48 18.1724 16.4691C17.9169 16.3622 17.7464 16.2015 17.5744 15.9856C17.5744 15.9478 17.5744 15.91 17.5744 15.8711C17.5176 15.8521 17.4609 15.8332 17.4025 15.8138C17.3344 15.6096 17.3344 15.6096 17.2879 15.4127C17.2501 15.4127 17.2123 15.4127 17.1733 15.4127C17.0088 14.8165 16.9458 14.1477 17.2306 13.5792C17.5217 13.0715 17.8778 12.734 18.3765 12.4333C18.4127 12.4106 18.4489 12.3879 18.4862 12.3646C19.1331 12.0179 19.9763 12.0709 20.6827 12.1289Z" fill="white"/>
<path d="M50.8635 0.114502C51.0002 0.319603 50.9938 0.464154 50.9918 0.700771C50.9919 0.743267 50.992 0.785763 50.9921 0.829546C50.9923 0.972335 50.9917 1.11511 50.9911 1.2579C50.991 1.36009 50.991 1.46229 50.9911 1.56449C50.9911 1.84231 50.9905 2.12013 50.9897 2.39795C50.9889 2.68815 50.9889 2.97835 50.9887 3.26855C50.9884 3.81826 50.9874 4.36796 50.9863 4.91767C50.985 5.54342 50.9844 6.16917 50.9838 6.79492C50.9826 8.08229 50.9806 9.36966 50.978 10.657C50.5994 10.6653 50.5994 10.6653 50.4373 10.5102C50.3801 10.4561 50.3801 10.4561 50.3218 10.401C50.2737 10.3531 50.2255 10.3053 50.1759 10.256C50.1429 10.2237 50.1099 10.1914 50.076 10.1581C49.2825 9.38161 49.2825 9.38161 49.03 9.05273C49.03 9.01491 49.03 8.9771 49.03 8.93814C48.9962 8.92432 48.9625 8.91051 48.9277 8.89628C48.7764 8.80957 48.7061 8.717 48.6038 8.57645C48.4525 8.37442 48.2944 8.19776 48.1132 8.0214C48.0177 7.9068 47.9222 7.79221 47.8267 7.67762C47.7736 7.62562 47.7204 7.57362 47.6656 7.52005C47.5403 7.39114 47.5403 7.39114 47.5403 7.27654C47.5024 7.27654 47.4646 7.27654 47.4257 7.27654C47.3446 7.18642 47.2678 7.09254 47.1929 6.99722C46.969 6.71624 46.7347 6.45014 46.489 6.18769C46.3943 6.07332 46.3943 6.07332 46.3943 5.95873C46.36 5.94433 46.3256 5.92992 46.2903 5.91508C46.1483 5.83459 46.089 5.75916 45.9968 5.62569C45.8599 5.42851 45.706 5.26764 45.5349 5.09928C45.4316 4.9888 45.3289 4.87798 45.2269 4.76625C45.1993 4.73609 45.1717 4.70594 45.1433 4.67488C44.9909 4.50798 44.8409 4.33946 44.6934 4.16822C44.5171 3.96371 44.3268 3.77648 44.1314 3.59033C44.0452 3.49499 44.0452 3.49499 44.0452 3.38039C44.0086 3.36503 43.9719 3.34967 43.9342 3.33384C43.816 3.2658 43.816 3.2658 43.7587 3.09391C43.6831 3.0561 43.6074 3.01828 43.5295 2.97932C43.5106 5.51296 43.4917 8.04661 43.4722 10.657C43.2453 10.657 43.0184 10.657 42.7847 10.657C42.7847 7.25362 42.7847 3.85022 42.7847 0.343687C42.8603 0.324779 42.9359 0.305872 43.0139 0.286391C43.0602 0.336836 43.1065 0.387282 43.1542 0.439256C43.216 0.506477 43.2779 0.573696 43.3397 0.640912C43.3701 0.674038 43.4005 0.707163 43.4318 0.741292C43.613 0.938015 43.7986 1.12875 43.9879 1.31772C44.0758 1.41255 44.1629 1.50804 44.2493 1.60421C44.2919 1.65148 44.3345 1.69875 44.3784 1.74745C44.4623 1.84351 44.5437 1.94186 44.6224 2.04221C44.7168 2.15764 44.8019 2.24106 44.919 2.33115C45.1403 2.51419 45.3034 2.73004 45.478 2.95671C45.6093 3.11451 45.7533 3.23519 45.9131 3.36249C46.0235 3.46607 46.0595 3.5831 46.1079 3.72417C46.1646 3.74308 46.2213 3.76199 46.2797 3.78147C46.3694 3.87147 46.3694 3.87147 46.4646 3.98603C46.6703 4.22842 46.8849 4.46018 47.1034 4.69105C47.3474 4.94997 47.59 5.20966 47.8267 5.47529C47.9984 5.66779 48.1759 5.85111 48.3599 6.03169C48.5027 6.17719 48.6351 6.33117 48.7677 6.48603C48.8562 6.59011 48.8562 6.59011 48.9557 6.6812C49.03 6.76088 49.03 6.76088 49.03 6.87547C49.0637 6.88994 49.0975 6.90442 49.1323 6.91934C49.274 6.99835 49.3521 7.08095 49.4561 7.20492C49.4906 7.24562 49.5251 7.28631 49.5606 7.32824C49.5935 7.36791 49.6264 7.40757 49.6602 7.44843C49.6878 7.48159 49.7153 7.51476 49.7437 7.54892C49.7682 7.57839 49.7926 7.60786 49.8178 7.63823C49.9146 7.75381 50.0113 7.85898 50.1186 7.9641C50.1188 7.92458 50.1191 7.88507 50.1193 7.84435C50.1252 6.88421 50.1315 5.92406 50.138 4.96392C50.1412 4.49961 50.1443 4.0353 50.1471 3.57098C50.1495 3.16643 50.1522 2.76189 50.1551 2.35734C50.1566 2.143 50.158 1.92867 50.1592 1.71433C50.1606 1.47544 50.1623 1.23657 50.1641 0.997685C50.1645 0.926099 50.1648 0.854513 50.1651 0.780757C50.1657 0.716077 50.1663 0.651397 50.1668 0.584757C50.1672 0.528191 50.1676 0.471626 50.1679 0.413347C50.1759 0.286391 50.1759 0.286391 50.2332 0.229095C50.3394 0.224954 50.4457 0.224292 50.5519 0.225514C50.6099 0.226031 50.6679 0.226548 50.7276 0.22708C50.7724 0.227745 50.8173 0.22841 50.8635 0.229095C50.8635 0.191279 50.8635 0.153463 50.8635 0.114502Z" fill="white"/>
<path d="M14.6521 0.229126C19.6388 0.229126 19.6388 0.229126 20.29 0.819323C20.7368 1.29336 20.8113 1.82983 20.7971 2.46301C20.7607 3.23588 20.3754 3.85077 19.8661 4.41176C19.6623 4.58365 19.6623 4.58365 19.5223 4.58365C19.5223 4.62146 19.5223 4.65928 19.5223 4.69824C18.5971 5.18135 18.5971 5.18135 18.0899 5.15661C18.0899 5.23224 18.0899 5.30787 18.0899 5.3858C18.0332 5.3858 17.9764 5.3858 17.918 5.3858C17.9416 5.40943 17.9653 5.43306 17.9896 5.45742C18.0227 5.4905 18.0558 5.52359 18.0899 5.55768C18.1277 5.59314 18.1655 5.62859 18.2045 5.66512C18.3191 5.78687 18.3191 5.78687 18.3905 5.91086C18.5222 6.12387 18.6787 6.31051 18.8383 6.50307C19.1196 6.84558 19.3934 7.19195 19.6617 7.5447C19.7713 7.68771 19.8835 7.82825 19.997 7.96816C20.0288 8.00741 20.0606 8.04666 20.0933 8.0871C20.1557 8.16381 20.2182 8.24034 20.281 8.31665C20.4963 8.58181 20.4963 8.58181 20.4963 8.70898C20.5341 8.70898 20.572 8.70898 20.6109 8.70898C20.6925 8.80726 20.7694 8.90945 20.8437 9.01337C20.8845 9.06987 20.9254 9.12637 20.9675 9.18459C21.0693 9.33924 21.0693 9.33924 21.1266 9.51113C21.1644 9.51113 21.2022 9.51113 21.2412 9.51113C21.3 9.60571 21.3571 9.70134 21.4131 9.79761C21.47 9.85531 21.5273 9.91255 21.585 9.9695C21.6567 10.0543 21.7271 10.1404 21.7962 10.2273C21.8497 10.2938 21.8497 10.2938 21.9043 10.3616C21.986 10.4852 21.986 10.4852 21.986 10.6571C20.6859 10.7564 20.6859 10.7564 20.4175 10.5335C20.1525 10.1945 20.1525 10.1945 20.1525 9.9695C20.0958 9.95059 20.0391 9.93169 19.9807 9.91221C19.9022 9.79899 19.8262 9.68411 19.7515 9.56843C19.6491 9.44086 19.5409 9.31871 19.4328 9.196C19.0276 8.7295 18.6482 8.24489 18.273 7.75419C18.247 7.7203 18.2211 7.6864 18.1943 7.65148C18.1229 7.55806 18.0518 7.46443 17.9807 7.3708C17.8697 7.22422 17.8697 7.22422 17.7645 7.12483C17.6888 7.04739 17.6888 7.04739 17.5957 6.85043C17.3744 6.38904 17.0339 5.9596 16.6575 5.61498C16.6007 5.59607 16.544 5.57717 16.4856 5.55768C16.4572 5.50096 16.4572 5.50096 16.4283 5.44309C16.2203 5.38637 16.0123 5.32965 15.798 5.2712C15.798 7.04853 15.798 8.82587 15.798 10.6571C15.4388 10.6571 15.0795 10.6571 14.7094 10.6571C14.6905 7.21584 14.6716 3.77462 14.6521 0.229126ZM16.3961 0.737631C16.3162 0.75159 16.3162 0.75159 16.2347 0.765831C16.0915 0.800399 15.9807 0.839937 15.8553 0.916682C15.7766 1.07406 15.7912 1.19951 15.7915 1.37564C15.7915 1.4479 15.7915 1.52016 15.7915 1.59461C15.7918 1.67377 15.7921 1.75292 15.7924 1.83208C15.7925 1.91285 15.7926 1.99361 15.7927 2.07438C15.7929 2.28707 15.7935 2.49976 15.7941 2.71245C15.7947 2.92944 15.7949 3.14643 15.7952 3.36341C15.7958 3.78926 15.7968 4.2151 15.798 4.64094C16.0249 4.63457 16.2516 4.6271 16.4784 4.61946C16.5419 4.61768 16.6055 4.61591 16.6709 4.61409C17.0593 4.60038 17.4253 4.56007 17.8034 4.46905C17.8034 4.43124 17.8034 4.39342 17.8034 4.35446C17.8578 4.3521 17.9121 4.34973 17.9681 4.3473C18.2722 4.30492 18.5372 4.13843 18.7774 3.95339C18.7963 3.89666 18.8153 3.83994 18.8347 3.7815C18.869 3.76495 18.9033 3.74841 18.9386 3.73136C19.2216 3.58579 19.3175 3.3412 19.422 3.05455C19.5971 2.48612 19.561 2.02544 19.2931 1.48965C19.204 1.36677 19.1288 1.29643 19.0066 1.20316C18.9688 1.20316 18.931 1.20316 18.892 1.20316C18.8637 1.11808 18.8637 1.11808 18.8347 1.03127C18.1282 0.724434 17.1521 0.600938 16.3961 0.737631Z" fill="white"/>
<path d="M31.2681 12.3187C32.724 12.3187 34.1799 12.3187 35.6799 12.3187C35.6799 12.5077 35.6799 12.6968 35.6799 12.8916C35.6322 12.8992 35.5846 12.9068 35.5355 12.9147C35.4733 12.9248 35.411 12.9349 35.3468 12.9453C35.285 12.9553 35.2232 12.9653 35.1595 12.9756C34.9895 13.0027 34.9895 13.0027 34.8204 13.0635C34.7358 13.2329 34.7554 13.3847 34.7548 13.5738C34.7546 13.6145 34.7544 13.6552 34.7542 13.6972C34.7537 13.8325 34.7536 13.9678 34.7535 14.1031C34.7533 14.1975 34.7531 14.2919 34.7529 14.3863C34.7526 14.5848 34.7525 14.7833 34.7525 14.9818C34.7525 15.2343 34.7518 15.4868 34.7508 15.7392C34.7501 15.9346 34.75 16.13 34.75 16.3254C34.75 16.4184 34.7497 16.5113 34.7493 16.6043C34.7469 17.1557 34.7729 17.6768 34.8777 18.2202C34.9156 18.2202 34.9534 18.2202 34.9923 18.2202C35.0231 18.2722 35.0538 18.3242 35.0854 18.3777C35.2532 18.6435 35.5197 18.7534 35.8171 18.8272C36.2745 18.8985 36.8579 18.9206 37.2696 18.6765C37.7035 18.34 37.8508 17.8764 37.9717 17.3607C38.0018 17.0836 38.004 16.8096 38.0022 16.5311C38.0023 16.4539 38.0026 16.3766 38.0028 16.2994C38.0032 16.139 38.0027 15.9787 38.0016 15.8183C38.0003 15.6143 38.0011 15.4103 38.0024 15.2063C38.0033 15.0474 38.003 14.8885 38.0024 14.7296C38.0022 14.6183 38.0029 14.507 38.0036 14.3958C37.9992 13.9808 37.9702 13.5945 37.7426 13.2354C37.567 13.1351 37.567 13.1351 37.3988 13.1208C37.3988 13.083 37.3988 13.0452 37.3988 13.0062C37.3539 12.9986 37.3091 12.991 37.2629 12.9832C37.176 12.968 37.176 12.968 37.0872 12.9525C37.0294 12.9425 36.9716 12.9326 36.912 12.9223C36.7685 12.8916 36.7685 12.8916 36.7112 12.8343C36.7036 12.7305 36.7036 12.7305 36.7041 12.6051C36.7038 12.5431 36.7038 12.5431 36.7036 12.4798C36.7112 12.376 36.7112 12.376 36.7685 12.3187C36.874 12.3133 36.9797 12.3119 37.0853 12.3122C37.153 12.3122 37.2207 12.3122 37.2904 12.3122C37.3641 12.3125 37.4377 12.3128 37.5136 12.3131C37.626 12.3132 37.626 12.3132 37.7407 12.3133C37.9403 12.3135 38.1399 12.3141 38.3395 12.3147C38.5431 12.3153 38.7466 12.3156 38.9501 12.3159C39.3498 12.3165 39.7494 12.3175 40.149 12.3187C40.149 12.5077 40.149 12.6968 40.149 12.8916C39.9032 12.9294 39.6574 12.9673 39.4041 13.0062C39.4041 13.044 39.4041 13.0818 39.4041 13.1208C39.335 13.1439 39.335 13.1439 39.2645 13.1674C39.216 13.1898 39.1676 13.2123 39.1177 13.2354C39.0988 13.2921 39.0798 13.3488 39.0604 13.4073C39.0226 13.4073 38.9847 13.4073 38.9458 13.4073C38.9451 13.4733 38.9451 13.4733 38.9444 13.5407C38.9399 13.9595 38.9349 14.3783 38.9293 14.7971C38.9265 15.0123 38.9238 15.2275 38.9216 15.4427C38.9195 15.6511 38.9168 15.8596 38.9138 16.068C38.9128 16.1467 38.9119 16.2255 38.9112 16.3043C38.9012 17.4349 38.8014 18.2529 37.9717 19.0796C37.6431 19.3952 37.6431 19.3952 37.3988 19.4234C37.3988 19.4612 37.3988 19.499 37.3988 19.538C37.3094 19.5672 37.2198 19.5957 37.1302 19.6239C37.0554 19.6479 37.0554 19.6479 36.9791 19.6723C36.8262 19.7098 36.6961 19.7167 36.5393 19.7099C36.5393 19.7477 36.5393 19.7855 36.5393 19.8245C35.9721 19.8245 35.4049 19.8245 34.8204 19.8245C34.8204 19.7867 34.8204 19.7488 34.8204 19.7099C34.7664 19.7057 34.7664 19.7057 34.7112 19.7014C34.3925 19.6735 34.0974 19.6236 33.7891 19.538C33.7891 19.5002 33.7891 19.4624 33.7891 19.4234C33.7396 19.4106 33.6901 19.3979 33.6391 19.3847C33.4162 19.2974 33.2656 19.1734 33.0944 19.0116C33.0504 18.9723 33.0504 18.9723 33.0055 18.9322C32.726 18.6732 32.5184 18.3793 32.4713 17.991C32.4335 17.991 32.3957 17.991 32.3567 17.991C32.2414 17.4378 32.2226 16.896 32.2184 16.3339C32.2173 16.2424 32.2162 16.1509 32.215 16.0594C32.2121 15.8209 32.2098 15.5824 32.2077 15.3439C32.2054 15.0996 32.2024 14.8553 32.1996 14.611C32.1941 14.1333 32.1892 13.6557 32.1848 13.1781C32.1281 13.1592 32.0714 13.1403 32.0129 13.1208C32.0129 13.083 32.0129 13.0452 32.0129 13.0062C31.7671 12.9684 31.5213 12.9306 31.2681 12.8916C31.2681 12.7025 31.2681 12.5135 31.2681 12.3187Z" fill="white"/>
<path d="M30.4044 0.221542C30.4518 0.221487 30.4993 0.221432 30.5482 0.221376C30.648 0.221337 30.7478 0.221441 30.8476 0.221682C30.9985 0.221987 31.1493 0.221684 31.3002 0.221318C31.7888 0.221145 32.272 0.225707 32.7578 0.286448C32.7578 0.324263 32.7578 0.362079 32.7578 0.40104C32.818 0.40525 32.818 0.40525 32.8795 0.409545C33.2143 0.435925 33.5233 0.481487 33.8464 0.572929C33.8464 0.610745 33.8464 0.648561 33.8464 0.687522C33.8973 0.696939 33.8973 0.696939 33.9491 0.706546C34.4589 0.808835 34.4589 0.808835 34.6486 0.974004C34.7031 1.20588 34.5997 1.41955 34.5225 1.63716C34.4518 1.85161 34.4065 2.07065 34.3621 2.29182C34.264 2.33121 34.264 2.33121 34.1329 2.34912C34.0053 2.28108 34.0053 2.28108 33.8679 2.17723C33.7931 2.12205 33.7931 2.12205 33.7168 2.06577C33.665 2.02692 33.6133 1.98807 33.5599 1.94804C33.4564 1.87358 33.3526 1.79955 33.2484 1.72602C33.2024 1.69308 33.1563 1.66014 33.1089 1.6262C32.9846 1.53818 32.9846 1.53818 32.8151 1.48967C32.8151 1.45186 32.8151 1.41404 32.8151 1.37508C32.7784 1.36466 32.7417 1.35425 32.7038 1.34352C32.4736 1.2766 32.2487 1.21107 32.0308 1.11008C31.587 0.92587 31.0961 0.961591 30.6235 0.95968C30.5152 0.957907 30.5152 0.957907 30.4048 0.956099C29.539 0.952502 28.7724 1.19569 28.1168 1.77615C27.8063 2.08723 27.5123 2.44354 27.3719 2.86478C27.3341 2.86478 27.2963 2.86478 27.2573 2.86478C27.2456 2.91242 27.2338 2.96006 27.2217 3.00914C27.2063 3.07141 27.1909 3.13367 27.175 3.19782C27.1597 3.25964 27.1444 3.32146 27.1286 3.38515C27.0991 3.49929 27.0654 3.61239 27.0281 3.72423C26.9903 3.72423 26.9525 3.72423 26.9135 3.72423C26.7446 5.03076 26.6885 6.30915 27.1414 7.56398C27.2 7.73497 27.2 7.73497 27.2 7.84956C27.2378 7.86847 27.2757 7.88738 27.3146 7.90686C27.3565 7.9807 27.3954 8.05624 27.4328 8.13246C27.8438 8.89585 28.5343 9.40767 29.3366 9.69468C29.6613 9.79014 29.9782 9.80676 30.3148 9.80726C30.3602 9.80745 30.4055 9.80764 30.4523 9.80784C30.5478 9.80813 30.6434 9.80827 30.739 9.80826C30.8839 9.80838 31.0287 9.80942 31.1735 9.81051C31.2669 9.81068 31.3602 9.81079 31.4536 9.81084C31.5176 9.81146 31.5176 9.81146 31.5828 9.81209C31.9371 9.81058 32.2841 9.76465 32.6109 9.62217C32.7639 9.56623 32.8917 9.5512 33.0534 9.53645C33.1053 9.53161 33.1571 9.52678 33.2106 9.5218C33.2502 9.51829 33.2899 9.51478 33.3307 9.51116C33.3306 9.46619 33.3305 9.42122 33.3303 9.37489C33.3292 8.95165 33.3283 8.52841 33.3278 8.10517C33.3275 7.88756 33.3271 7.66996 33.3264 7.45235C33.3258 7.24245 33.3254 7.03255 33.3253 6.82265C33.3252 6.74247 33.325 6.66228 33.3247 6.5821C33.3243 6.47002 33.3242 6.35794 33.3242 6.24585C33.3241 6.18198 33.324 6.11811 33.3238 6.05231C33.3307 5.90149 33.3307 5.90149 33.388 5.7869C33.7473 5.7869 34.1065 5.7869 34.4767 5.7869C34.5603 5.95425 34.5408 6.10105 34.5405 6.28793C34.5405 6.32763 34.5405 6.36732 34.5405 6.40822C34.5404 6.53967 34.54 6.67111 34.5396 6.80256C34.5394 6.89361 34.5394 6.98465 34.5393 7.07569C34.5391 7.31551 34.5385 7.55533 34.5379 7.79515C34.5373 8.03978 34.537 8.28442 34.5368 8.52906C34.5361 9.00922 34.5352 9.48937 34.534 9.96953C34.4953 9.97647 34.4566 9.98341 34.4167 9.99057C34.3656 10.0002 34.3145 10.0098 34.2618 10.0197C34.2113 10.029 34.1608 10.0383 34.1087 10.0479C33.9675 10.0825 33.8602 10.1325 33.7318 10.1987C33.5788 10.2335 33.4277 10.2644 33.2734 10.2918C33.2327 10.2995 33.1919 10.3072 33.1499 10.3151C32.9574 10.3503 32.7823 10.3706 32.5859 10.3706C32.5859 10.4084 32.5859 10.4462 32.5859 10.4852C31.9703 10.587 31.371 10.6179 30.7478 10.6147C30.6018 10.6141 30.4557 10.6147 30.3097 10.6155C29.777 10.6158 29.2712 10.5891 28.747 10.4852C28.747 10.4474 28.747 10.4096 28.747 10.3706C28.6891 10.3635 28.6312 10.3564 28.5716 10.3491C28.3529 10.3144 28.156 10.2633 27.9449 10.1987C27.9449 10.1609 27.9449 10.1231 27.9449 10.0841C27.8857 10.0702 27.8266 10.0562 27.7656 10.0418C27.4078 9.93916 27.1417 9.68355 26.8562 9.45386C26.8147 9.42188 26.7731 9.3899 26.7302 9.35695C26.0071 8.77166 25.5419 7.93677 25.3092 7.04741C25.2899 6.98868 25.2705 6.92995 25.2505 6.86944C25.1813 6.62688 25.1791 6.3958 25.1815 6.145C25.1815 6.09819 25.1815 6.05138 25.1815 6.00316C25.1817 5.90473 25.1822 5.80631 25.1829 5.70789C25.1839 5.55815 25.184 5.40844 25.184 5.25869C25.1843 5.1626 25.1846 5.06651 25.185 4.97042C25.1851 4.92613 25.1852 4.88183 25.1852 4.83619C25.1889 4.40776 25.2478 4.0613 25.4238 3.66693C25.4665 3.53405 25.5026 3.40081 25.5384 3.26586C25.5762 3.26586 25.6141 3.26586 25.653 3.26586C25.6625 3.21268 25.6719 3.1595 25.6817 3.10471C25.7761 2.76874 26.0145 2.50509 26.226 2.23452C26.2838 2.15985 26.2838 2.15985 26.3428 2.08367C26.8487 1.47299 27.6654 0.822142 28.4605 0.687522C28.4605 0.649707 28.4605 0.611891 28.4605 0.572929C28.5691 0.543855 28.6777 0.51531 28.7864 0.486985C28.8772 0.463055 28.8772 0.463055 28.9697 0.438641C29.1316 0.404526 29.2701 0.393714 29.4346 0.40104C29.4346 0.363225 29.4346 0.325409 29.4346 0.286448C29.7604 0.239904 30.0755 0.220685 30.4044 0.221542Z" fill="white"/>
<path d="M23.7624 12.3187C26.1826 12.3187 28.6028 12.3187 31.0963 12.3187C31.0963 13.075 31.0963 13.8313 31.0963 14.6106C30.9072 14.6106 30.7181 14.6106 30.5233 14.6106C30.4666 14.3553 30.4666 14.3553 30.4087 14.0949C30.3709 14.0949 30.3331 14.0949 30.2942 14.0949C30.2681 14.0389 30.2681 14.0389 30.2416 13.9817C30.0132 13.4758 30.0132 13.4758 29.6066 13.1209C29.6066 13.0831 29.6066 13.0452 29.6066 13.0063C29.3041 13.0063 29.0016 13.0063 28.6899 13.0063C28.6872 13.71 28.6852 14.4138 28.6839 15.1176C28.6833 15.4444 28.6825 15.7711 28.6812 16.0979C28.68 16.4133 28.6793 16.7287 28.679 17.0442C28.6788 17.1644 28.6784 17.2847 28.6777 17.405C28.6769 17.5736 28.6768 17.7422 28.6768 17.9107C28.6762 17.9852 28.6762 17.9852 28.6756 18.0612C28.6765 18.3268 28.6956 18.5456 28.8045 18.7932C28.8992 18.8645 28.8992 18.8645 29.0162 18.8895C29.0572 18.9013 29.0982 18.9131 29.1404 18.9253C29.2045 18.9414 29.2045 18.9414 29.27 18.9579C29.3132 18.9701 29.3564 18.9822 29.4009 18.9946C29.5073 19.0243 29.6142 19.0522 29.7212 19.0797C29.7268 19.4322 29.7268 19.4322 29.7212 19.5381C29.6087 19.6506 29.3905 19.6059 29.2366 19.6071C29.1919 19.6077 29.1472 19.6083 29.1011 19.6088C28.9526 19.6107 28.8041 19.6121 28.6556 19.6135C28.5529 19.6147 28.4502 19.6159 28.3476 19.6171C28.0768 19.6203 27.8059 19.6231 27.5351 19.6259C27.259 19.6287 26.9829 19.6319 26.7068 19.6351C26.1646 19.6413 25.6224 19.6471 25.0802 19.6527C25.0991 19.4636 25.118 19.2745 25.1375 19.0797C25.203 19.0638 25.2685 19.0479 25.336 19.0316C25.4214 19.0106 25.5069 18.9897 25.5923 18.9687C25.6571 18.953 25.6571 18.953 25.7233 18.937C25.9346 18.8999 25.9346 18.8999 26.1115 18.7932C26.1187 18.6136 26.1222 18.4352 26.1233 18.2555C26.1239 18.199 26.1244 18.1426 26.125 18.0844C26.1268 17.8969 26.1282 17.7093 26.1297 17.5217C26.1308 17.3921 26.132 17.2624 26.1333 17.1327C26.1364 16.7907 26.1393 16.4487 26.142 16.1067C26.1449 15.758 26.1481 15.4093 26.1513 15.0606C26.1574 14.3758 26.1632 13.691 26.1688 13.0063C26.134 13.0063 26.0992 13.0063 26.0633 13.0063C25.8574 13.0063 25.6514 13.0063 25.4455 13.0063C25.1611 13.0905 25.0162 13.282 24.851 13.5219C24.8321 13.5787 24.8132 13.6354 24.7937 13.6938C24.7559 13.6938 24.7181 13.6938 24.6791 13.6938C24.6224 13.864 24.5657 14.0342 24.5072 14.2095C24.4694 14.2095 24.4316 14.2095 24.3926 14.2095C24.3844 14.2544 24.3761 14.2993 24.3676 14.3456C24.3353 14.496 24.3353 14.496 24.278 14.6106C23.9944 14.6389 23.9944 14.6389 23.7051 14.6679C23.724 13.8927 23.7429 13.1174 23.7624 12.3187Z" fill="white"/>
<path d="M36.1384 0.286499C37.859 0.286499 39.5796 0.286499 41.3524 0.286499C41.3524 0.5323 41.3524 0.778102 41.3524 1.03135C41.2484 1.13534 41.0868 1.09852 40.9467 1.10041C40.8349 1.10213 40.8349 1.10213 40.7208 1.10387C40.6388 1.10485 40.5568 1.10582 40.4748 1.10678C40.3914 1.10795 40.308 1.10916 40.2246 1.11038C40.0046 1.11355 39.7847 1.11638 39.5647 1.11914C39.301 1.12252 39.0374 1.12632 38.7737 1.13005C38.3727 1.13567 37.9718 1.14075 37.5708 1.14594C37.5708 2.29932 37.5708 3.45269 37.5708 4.64102C38.7185 4.63875 38.7185 4.63875 39.8661 4.63586C40.0094 4.63569 40.1526 4.63555 40.2958 4.63542C40.3709 4.63513 40.4461 4.63484 40.5236 4.63454C40.63 4.63453 40.63 4.63453 40.7386 4.63452C40.8005 4.63439 40.8625 4.63426 40.9263 4.63413C41.0659 4.64102 41.0659 4.64102 41.1232 4.69832C41.1232 4.94412 41.1232 5.18992 41.1232 5.44317C39.932 5.44317 38.7408 5.44317 37.5135 5.44317C37.5419 5.49989 37.5419 5.49989 37.5708 5.55776C37.5761 5.68999 37.5776 5.82239 37.5773 5.95472C37.5773 5.99554 37.5774 6.03635 37.5774 6.0784C37.5773 6.21357 37.5769 6.34873 37.5764 6.4839C37.5763 6.57751 37.5762 6.67113 37.5762 6.76474C37.576 7.01134 37.5754 7.25794 37.5748 7.50454C37.5742 7.75609 37.5739 8.00764 37.5736 8.25919C37.573 8.75293 37.572 9.24666 37.5708 9.74039C37.6188 9.74098 37.6668 9.74157 37.7162 9.74218C38.1673 9.74779 38.6184 9.75366 39.0694 9.75984C39.3014 9.763 39.5333 9.76606 39.7652 9.76889C39.9889 9.77161 40.2125 9.77461 40.4362 9.7778C40.5217 9.77898 40.6072 9.78005 40.6927 9.78102C40.8121 9.7824 40.9314 9.78412 41.0508 9.78593C41.1189 9.78682 41.1869 9.78771 41.2571 9.78862C41.4097 9.79769 41.4097 9.79769 41.467 9.85499C41.467 10.1197 41.467 10.3844 41.467 10.6571C39.7086 10.6571 37.9501 10.6571 36.1384 10.6571C36.1384 7.23483 36.1384 3.81252 36.1384 0.286499Z" fill="white"/>
<path d="M49.6138 12.3109C49.6776 12.311 49.6776 12.311 49.7427 12.3112C49.8097 12.3111 49.8097 12.3111 49.878 12.3109C50.0262 12.3107 50.1744 12.3108 50.3226 12.311C50.4252 12.311 50.5277 12.3109 50.6303 12.3109C50.8455 12.3108 51.0607 12.3109 51.2759 12.3112C51.5524 12.3115 51.8289 12.3113 52.1054 12.311C52.3173 12.3107 52.5291 12.3108 52.7409 12.311C52.8429 12.311 52.9449 12.311 53.0469 12.3108C53.1892 12.3107 53.3314 12.3109 53.4737 12.3112C53.5163 12.3111 53.5588 12.311 53.6027 12.3109C53.8935 12.3121 53.8935 12.3121 53.9574 12.3759C53.965 12.4798 53.965 12.4798 53.9645 12.6051C53.9648 12.6672 53.9648 12.6672 53.965 12.7304C53.9574 12.8343 53.9574 12.8343 53.9001 12.8916C53.7367 12.9239 53.5737 12.9535 53.4095 12.9811C53.3402 12.993 53.3402 12.993 53.2695 13.0052C53.155 13.0248 53.0405 13.0442 52.926 13.0635C52.8497 13.2926 52.8598 13.5129 52.8595 13.7518C52.8592 13.8047 52.8589 13.8575 52.8587 13.9119C52.8578 14.0869 52.8574 14.2618 52.8571 14.4368C52.8568 14.5582 52.8565 14.6796 52.8561 14.8009C52.8555 15.0554 52.8552 15.31 52.855 15.5645C52.8547 15.8911 52.8533 16.2176 52.8517 16.5442C52.8506 16.7949 52.8503 17.0456 52.8502 17.2962C52.85 17.4167 52.8496 17.5371 52.8488 17.6576C52.8478 17.8257 52.848 17.9939 52.8483 18.1621C52.8478 18.2121 52.8473 18.2621 52.8467 18.3136C52.8402 18.5602 52.8402 18.5602 52.9433 18.7745C53.1003 18.8969 53.2873 18.9275 53.4775 18.9722C53.8941 19.0736 53.8941 19.0736 53.9574 19.1369C53.9645 19.3374 53.9645 19.3374 53.9574 19.538C53.8442 19.6511 53.6224 19.6058 53.4675 19.607C53.4223 19.6076 53.377 19.6082 53.3304 19.6087C53.18 19.6106 53.0296 19.612 52.8793 19.6134C52.7753 19.6146 52.6713 19.6158 52.5674 19.617C52.2932 19.6202 52.019 19.623 51.7448 19.6258C51.4652 19.6286 51.1856 19.6318 50.906 19.635C50.357 19.6412 49.8081 19.647 49.2591 19.6526C49.2591 19.4635 49.2591 19.2744 49.2591 19.0796C49.3054 19.0727 49.3517 19.0657 49.3994 19.0586C49.4606 19.049 49.5219 19.0394 49.585 19.0295C49.6454 19.0202 49.7059 19.0108 49.7683 19.0013C49.9375 18.9669 50.0796 18.9295 50.2331 18.8504C50.3085 18.6242 50.2984 18.4084 50.2978 18.1726C50.2979 18.1209 50.298 18.0691 50.2981 18.0159C50.2984 17.8446 50.2982 17.6734 50.298 17.5022C50.2981 17.3833 50.2981 17.2645 50.2982 17.1457C50.2983 16.8966 50.2982 16.6475 50.2979 16.3984C50.2976 16.0787 50.2977 15.7591 50.2981 15.4394C50.2983 15.1941 50.2982 14.9487 50.2981 14.7033C50.298 14.5855 50.2981 14.4676 50.2982 14.3497C50.2984 14.1851 50.2981 14.0205 50.2978 13.8559C50.2979 13.807 50.2981 13.758 50.2982 13.7076C50.2975 13.5166 50.2939 13.3605 50.2331 13.1781C50.1764 13.1592 50.1197 13.1403 50.0612 13.1208C50.0612 13.083 50.0612 13.0451 50.0612 13.0062C49.6642 12.9778 49.6642 12.9778 49.2591 12.9489C49.2535 12.5069 49.2535 12.5069 49.2591 12.3759C49.3575 12.2775 49.4826 12.3114 49.6138 12.3109Z" fill="white"/>
<path d="M51.6726 0.222125C51.7536 0.222204 51.7536 0.222204 51.8363 0.222285C51.8981 0.222206 51.9599 0.222127 52.0235 0.222046C52.0919 0.222252 52.1603 0.222458 52.2307 0.22267C52.3023 0.222662 52.3738 0.222653 52.4475 0.222645C52.6443 0.222678 52.841 0.222966 53.0377 0.223365C53.2431 0.223722 53.4485 0.223757 53.6539 0.223825C54.0431 0.224003 54.4323 0.224474 54.8215 0.225048C55.2645 0.225688 55.7075 0.226004 56.1505 0.226291C57.062 0.226891 57.9734 0.227911 58.8849 0.229175C58.8849 0.550607 58.8849 0.87204 58.8849 1.20321C57.9395 1.20321 56.9941 1.20321 56.0201 1.20321C56.0204 1.48756 56.0207 1.77191 56.021 2.06488C56.022 3.00183 56.0226 3.93878 56.0231 4.87574C56.0234 5.4441 56.0238 6.01246 56.0244 6.58083C56.025 7.07603 56.0254 7.57123 56.0255 8.06643C56.0256 8.3288 56.0257 8.59117 56.0262 8.85354C56.0265 9.1002 56.0267 9.34686 56.0266 9.59352C56.0266 9.68432 56.0267 9.77512 56.0269 9.86591C56.0272 9.98934 56.0272 10.1128 56.027 10.2362C56.027 10.3054 56.0271 10.3747 56.0272 10.446C56.0201 10.5998 56.0201 10.5998 55.9628 10.6571C55.874 10.6628 55.785 10.6646 55.696 10.6647C55.6153 10.6648 55.6153 10.6648 55.5329 10.6649C55.4762 10.6647 55.4196 10.6645 55.3612 10.6643C55.3045 10.6645 55.2479 10.6647 55.1895 10.6649C55.1357 10.6649 55.0818 10.6648 55.0264 10.6647C54.9766 10.6647 54.9269 10.6646 54.8756 10.6645C54.7596 10.6571 54.7596 10.6571 54.7023 10.5998C54.6967 10.4787 54.6953 10.3574 54.6954 10.2362C54.6953 10.1978 54.6953 10.1593 54.6952 10.1198C54.6952 9.99008 54.6955 9.86041 54.6958 9.73073C54.6958 9.63814 54.6958 9.54556 54.6958 9.45297C54.6957 9.20083 54.6961 8.94869 54.6965 8.69655C54.6968 8.43335 54.6969 8.17014 54.6969 7.90693C54.6971 7.40816 54.6976 6.90938 54.6982 6.4106C54.6988 5.84291 54.6991 5.27523 54.6994 4.70754C54.7 3.53943 54.701 2.37132 54.7023 1.20321C54.6445 1.20359 54.6445 1.20359 54.5856 1.20398C54.186 1.20651 53.7863 1.20824 53.3867 1.20951C53.2374 1.21008 53.0881 1.21087 52.9388 1.21186C52.7246 1.21324 52.5105 1.2139 52.2963 1.2144C52.1957 1.21529 52.1957 1.21529 52.093 1.2162C52.0001 1.21621 52.0001 1.21621 51.9053 1.21622C51.8506 1.21648 51.7959 1.21673 51.7395 1.21699C51.6083 1.20321 51.6083 1.20321 51.4937 1.08862C51.4805 0.903973 51.4805 0.903973 51.483 0.683964C51.4833 0.611214 51.4837 0.538463 51.4841 0.463508C51.4966 0.232326 51.4966 0.232326 51.6726 0.222125Z" fill="white"/>
<path d="M6.68808 0.114502C6.7448 0.13341 6.80152 0.152318 6.85996 0.171798C6.95869 0.177507 7.05761 0.179932 7.1565 0.180478C7.21788 0.180956 7.27926 0.181434 7.3425 0.181927C7.40983 0.182166 7.47717 0.182406 7.54654 0.182653C7.61745 0.183128 7.68835 0.183604 7.76141 0.184093C7.9156 0.185091 8.06979 0.185988 8.22399 0.186716C8.46759 0.187874 8.71119 0.189459 8.95478 0.191109C9.51569 0.194845 10.0766 0.198023 10.6375 0.201193C11.1519 0.204104 11.6662 0.207131 12.1805 0.210619C12.4229 0.212247 12.6653 0.213598 12.9077 0.21474C13.0934 0.215685 13.2791 0.216992 13.4648 0.21824C13.5324 0.218479 13.6 0.218719 13.6696 0.218966C13.7307 0.219444 13.7917 0.219922 13.8546 0.220415C13.908 0.22071 13.9614 0.221005 14.0164 0.22131C14.1366 0.229095 14.1366 0.229095 14.1939 0.286391C14.1996 0.418788 14.2013 0.551365 14.2011 0.683884C14.2012 0.756487 14.2014 0.82909 14.2015 0.903893C14.1939 1.08854 14.1939 1.08854 14.1366 1.20313C13.1156 1.20313 12.0946 1.20313 11.0426 1.20313C11.0426 4.32292 11.0426 7.4427 11.0426 10.657C10.6266 10.657 10.2107 10.657 9.78208 10.657C9.78208 7.53724 9.78208 4.41746 9.78208 1.20313C8.74215 1.20313 7.70222 1.20313 6.63078 1.20313C6.51773 1.09009 6.56288 0.877409 6.56274 0.723275C6.56204 0.683983 6.56134 0.64469 6.56061 0.604207C6.55999 0.389927 6.56622 0.297279 6.68808 0.114502Z" fill="white"/>
<path d="M22.6165 0.229126C23.0135 0.229126 23.4106 0.229126 23.8197 0.229126C23.8662 0.838508 23.8853 1.44123 23.8844 2.05216C23.8845 2.14524 23.8846 2.23832 23.8847 2.3314C23.885 2.58125 23.8849 2.8311 23.8847 3.08096C23.8845 3.34326 23.8847 3.60557 23.8848 3.86788C23.8849 4.30734 23.8847 4.74679 23.8844 5.18625C23.8841 5.69455 23.8842 6.20284 23.8845 6.71113C23.8848 7.1485 23.8848 7.58586 23.8847 8.02323C23.8846 8.28408 23.8846 8.54494 23.8848 8.8058C23.8849 9.0503 23.8848 9.29481 23.8845 9.53932C23.8844 9.62917 23.8844 9.71902 23.8846 9.80887C23.8847 9.9311 23.8845 10.0533 23.8842 10.1756C23.8842 10.2441 23.8842 10.3126 23.8842 10.3831C23.877 10.5425 23.877 10.5425 23.8197 10.6571C23.4226 10.6571 23.0256 10.6571 22.6165 10.6571C22.6165 7.21584 22.6165 3.77462 22.6165 0.229126Z" fill="white"/>
<path d="M0.5 11.0009C21.62 11.0009 42.74 11.0009 64.5 11.0009C64.5 11.0576 64.5 11.1143 64.5 11.1727C43.38 11.1727 22.26 11.1727 0.5 11.1727C0.5 11.116 0.5 11.0593 0.5 11.0009Z" fill="#2B4957"/>
<path d="M54.9314 10.7144C55.1772 10.7144 55.423 10.7144 55.6762 10.7144C55.6762 10.7333 55.6762 10.7522 55.6762 10.7717C55.4304 10.7717 55.1846 10.7717 54.9314 10.7717C54.9314 10.7527 54.9314 10.7338 54.9314 10.7144Z" fill="white"/>
<path d="M23.5332 0.057251C23.6466 0.113974 23.6466 0.113974 23.7624 0.171844C23.6868 0.171844 23.6111 0.171844 23.5332 0.171844C23.5332 0.134028 23.5332 0.0962125 23.5332 0.057251Z" fill="white"/>
<path d="M4.45337 10.829C4.54791 10.829 4.64245 10.829 4.73985 10.829C4.73985 10.8479 4.73985 10.8668 4.73985 10.8863C4.64531 10.8863 4.55077 10.8863 4.45337 10.8863C4.45337 10.8674 4.45337 10.8485 4.45337 10.829Z" fill="#666633"/>
<path d="M43.0713 10.7144C43.1469 10.7333 43.2226 10.7522 43.3005 10.7717C43.2248 10.7906 43.1492 10.8095 43.0713 10.8289C43.0713 10.7911 43.0713 10.7533 43.0713 10.7144Z" fill="white"/>
<path d="M4.05249 14.6105C4.09031 14.6105 4.12812 14.6105 4.16708 14.6105C4.16708 14.6483 4.16708 14.6861 4.16708 14.7251C4.12927 14.7251 4.09145 14.7251 4.05249 14.7251C4.05249 14.6873 4.05249 14.6494 4.05249 14.6105Z" fill="white"/>
<path d="M31.1536 12.5479C31.2109 12.777 31.2109 12.777 31.2109 12.777L31.1536 12.5479Z" fill="white"/>
<path d="M10.6987 10.7144C10.9279 10.7717 10.9279 10.7717 10.9279 10.7717L10.6987 10.7144Z" fill="white"/>
<path d="M1.24487 10.829C1.41676 10.8863 1.41676 10.8863 1.41676 10.8863L1.24487 10.829Z" fill="#555500"/>
<path d="M46.8528 6.70361C46.8906 6.74143 46.9284 6.77924 46.9674 6.81821C46.9296 6.81821 46.8917 6.81821 46.8528 6.81821C46.8528 6.78039 46.8528 6.74257 46.8528 6.70361Z" fill="white"/>
<path d="M17.8608 19.3661C17.9754 19.4234 17.9754 19.4234 17.9754 19.4234L17.8608 19.3661Z" fill="white"/>
<path d="M22.6736 15.0116C22.7882 15.0689 22.7882 15.0689 22.7882 15.0689L22.6736 15.0116Z" fill="white"/>
<path d="M19.5796 13.1781C19.6942 13.2354 19.6942 13.2354 19.6942 13.2354L19.5796 13.1781Z" fill="white"/>
<path d="M3.42212 10.829C3.53671 10.8863 3.53671 10.8863 3.53671 10.8863L3.42212 10.829Z" fill="white"/>
<path d="M36.4248 10.7144C36.5394 10.7717 36.5394 10.7717 36.5394 10.7717L36.4248 10.7144Z" fill="white"/>
<path d="M23.304 10.7144C23.4185 10.7717 23.4185 10.7717 23.4185 10.7717L23.304 10.7144Z" fill="white"/>
</g>
<defs>
<clipPath id="clip0_74_309">
<rect width="64" height="19.8245" fill="white" transform="translate(0.5)"/>
</clipPath>
</defs>
</svg>
